<svg width="366" height="793" viewBox="0 0 366 793" fill="none" xmlns="http://www.w3.org/2000/svg">
<g clip-path="url(#clip0_4_83)">
<rect width="365.927" height="792.354" rx="31.2258" fill="#17171C"/>
<rect width="365.927" height="42.9355" fill="#17171C"/>
<path d="M34.1424 17.1027C34.6487 17.1064 35.1477 17.1988 35.6393 17.3799C36.1309 17.5611 36.5745 17.8568 36.97 18.267C37.3692 18.6773 37.687 19.2318 37.9236 19.9303C38.1639 20.6252 38.2858 21.4901 38.2895 22.5251C38.2895 23.5194 38.1897 24.4046 37.9901 25.1808C37.7905 25.9534 37.5041 26.6057 37.1308 27.138C36.7611 27.6703 36.312 28.075 35.7835 28.3522C35.2549 28.6294 34.6598 28.768 33.9982 28.768C33.3218 28.768 32.7212 28.635 32.1963 28.3688C31.6714 28.1027 31.2445 27.7349 30.9155 27.2655C30.5866 26.7924 30.3814 26.2491 30.3001 25.6355H31.9911C32.102 26.1234 32.3275 26.5189 32.6676 26.822C33.0113 27.1214 33.4549 27.2711 33.9982 27.2711C34.8299 27.2711 35.4785 26.9088 35.9443 26.1844C36.41 25.4562 36.6447 24.4397 36.6484 23.135H36.5597C36.3675 23.4529 36.1272 23.7264 35.8389 23.9555C35.5543 24.1847 35.2346 24.3621 34.8798 24.4878C34.5249 24.6135 34.1461 24.6763 33.7432 24.6763C33.0889 24.6763 32.4938 24.5155 31.9579 24.1939C31.4219 23.8724 30.995 23.4307 30.6771 22.8688C30.3593 22.307 30.2003 21.6657 30.2003 20.945C30.2003 20.2279 30.363 19.5773 30.6882 18.9933C31.0172 18.4093 31.4755 17.9473 32.0632 17.6073C32.6546 17.2635 33.3477 17.0953 34.1424 17.1027ZM34.1479 18.5443C33.7154 18.5443 33.3255 18.6514 32.978 18.8658C32.6343 19.0765 32.3626 19.363 32.163 19.7252C31.9634 20.0837 31.8636 20.4829 31.8636 20.9228C31.8636 21.3626 31.9597 21.7618 32.1519 22.1204C32.3478 22.4752 32.614 22.758 32.9503 22.9686C33.2904 23.1756 33.6785 23.2791 34.1146 23.2791C34.4399 23.2791 34.743 23.2163 35.0239 23.0906C35.3048 22.9649 35.5506 22.7912 35.7613 22.5694C35.972 22.344 36.1365 22.0889 36.2548 21.8043C36.373 21.5197 36.4322 21.2203 36.4322 20.9061C36.4322 20.4885 36.3324 20.1004 36.1328 19.7418C35.9369 19.3833 35.6671 19.095 35.3233 18.8769C34.9796 18.6551 34.5878 18.5443 34.1479 18.5443ZM41.4068 27.2045C41.1037 27.2045 40.8432 27.0973 40.6251 26.883C40.407 26.6649 40.298 26.4024 40.298 26.0957C40.298 25.7926 40.407 25.5338 40.6251 25.3194C40.8432 25.1014 41.1037 24.9923 41.4068 24.9923C41.7099 24.9923 41.9705 25.1014 42.1886 25.3194C42.4067 25.5338 42.5157 25.7926 42.5157 26.0957C42.5157 26.299 42.464 26.4856 42.3605 26.6556C42.2607 26.822 42.1276 26.955 41.9613 27.0548C41.7949 27.1546 41.6101 27.2045 41.4068 27.2045ZM41.4068 21.516C41.1037 21.516 40.8432 21.4088 40.6251 21.1945C40.407 20.9764 40.298 20.7139 40.298 20.4072C40.298 20.1041 40.407 19.8453 40.6251 19.6309C40.8432 19.4129 41.1037 19.3038 41.4068 19.3038C41.7099 19.3038 41.9705 19.4129 42.1886 19.6309C42.4067 19.8453 42.5157 20.1041 42.5157 20.4072C42.5157 20.6104 42.464 20.7971 42.3605 20.9671C42.2607 21.1335 42.1276 21.2665 41.9613 21.3663C41.7949 21.4661 41.6101 21.516 41.4068 21.516ZM44.4756 26.3951V25.009L49.3824 17.258H50.4746V19.2983H49.7816L46.272 24.8537V24.9424H52.9973V26.3951H44.4756ZM49.8592 28.6128V25.9737L49.8703 25.3416V17.258H51.4948V28.6128H49.8592ZM59.085 17.258V28.6128H57.3663V18.9767H57.2997L54.583 20.7509V19.1098L57.4162 17.258H59.085Z" fill="white"/>
<path fill-rule="evenodd" clip-rule="evenodd" d="M297.621 20.0041H296.645C296.106 20.0041 295.669 20.4136 295.669 20.9189V28.8473C295.669 29.3525 296.106 29.7621 296.645 29.7621H297.621C298.16 29.7621 298.597 29.3525 298.597 28.8473V20.9189C298.597 20.4136 298.16 20.0041 297.621 20.0041ZM291.766 21.9557H292.742C293.281 21.9557 293.718 22.3751 293.718 22.8925V28.8254C293.718 29.3428 293.281 29.7622 292.742 29.7622H291.766C291.227 29.7622 290.79 29.3428 290.79 28.8254V22.8925C290.79 22.3751 291.227 21.9557 291.766 21.9557ZM287.863 23.9073H286.887C286.348 23.9073 285.911 24.3442 285.911 24.8831V28.7863C285.911 29.3252 286.348 29.7621 286.887 29.7621H287.863C288.402 29.7621 288.839 29.3252 288.839 28.7863V24.8831C288.839 24.3442 288.402 23.9073 287.863 23.9073ZM282.984 25.8589H282.008C281.469 25.8589 281.032 26.2958 281.032 26.8347V28.7864C281.032 29.3253 281.469 29.7622 282.008 29.7622H282.984C283.523 29.7622 283.96 29.3253 283.96 28.7864V26.8347C283.96 26.2958 283.523 25.8589 282.984 25.8589Z" fill="white"/>
<path fill-rule="evenodd" clip-rule="evenodd" d="M310.927 20.7625C313.09 20.7626 315.169 21.5934 316.736 23.0833C316.854 23.1983 317.043 23.1969 317.159 23.0801L318.287 21.9416C318.346 21.8824 318.379 21.8021 318.378 21.7186C318.378 21.6351 318.344 21.5552 318.285 21.4966C314.172 17.5548 307.683 17.5548 303.57 21.4966C303.51 21.5552 303.476 21.635 303.476 21.7185C303.475 21.802 303.508 21.8823 303.567 21.9416L304.695 23.0801C304.811 23.1971 305 23.1985 305.118 23.0833C306.685 21.5933 308.765 20.7625 310.927 20.7625ZM310.927 24.4663C312.115 24.4663 313.261 24.9079 314.141 25.7053C314.261 25.8185 314.448 25.816 314.564 25.6998L315.691 24.5613C315.75 24.5016 315.783 24.4206 315.782 24.3364C315.782 24.2522 315.747 24.1719 315.686 24.1134C313.005 21.6189 308.852 21.6189 306.17 24.1134C306.11 24.1719 306.075 24.2523 306.074 24.3365C306.073 24.4207 306.106 24.5017 306.166 24.5613L307.292 25.6998C307.408 25.816 307.596 25.8185 307.715 25.7053C308.595 24.9084 309.74 24.4668 310.927 24.4663ZM313.184 26.9583C313.186 27.0427 313.153 27.1241 313.093 27.1832L311.144 29.1501C311.086 29.2079 311.009 29.2404 310.927 29.2404C310.846 29.2404 310.768 29.2079 310.711 29.1501L308.762 27.1832C308.701 27.124 308.668 27.0426 308.67 26.9582C308.672 26.8738 308.708 26.7939 308.771 26.7373C310.016 25.6845 311.839 25.6845 313.083 26.7373C313.146 26.7939 313.183 26.8739 313.184 26.9583Z" fill="white"/>
<path opacity="0.35" d="M326.57 18.0524H345.761C346.928 18.0524 347.875 18.9989 347.875 20.1666V27.6478C347.875 28.8154 346.928 29.762 345.761 29.762H326.57C325.402 29.762 324.456 28.8154 324.456 27.6478V20.1666C324.456 18.9989 325.402 18.0524 326.57 18.0524Z" stroke="white" stroke-width="0.975806"/>
<path opacity="0.4" d="M348.997 22.4435V26.3467C349.783 26.0161 350.293 25.2471 350.293 24.3951C350.293 23.5431 349.783 22.7741 348.997 22.4435" fill="white"/>
<path d="M326.212 21.1424C326.212 20.4238 326.795 19.8413 327.513 19.8413H344.623C345.341 19.8413 345.924 20.4238 345.924 21.1424V26.6687C345.924 27.3873 345.341 27.9698 344.623 27.9698H327.513C326.795 27.9698 326.212 27.3873 326.212 26.6687V21.1424Z" fill="white"/>
<rect width="365.927" height="33.1774" transform="translate(0 759.177)" fill="#17171C"/>
<path fill-rule="evenodd" clip-rule="evenodd" d="M111.242 782.108C111.242 780.761 112.334 779.669 113.681 779.669H253.222C254.569 779.669 255.661 780.761 255.661 782.108V782.108C255.661 783.456 254.569 784.548 253.222 784.548H113.681C112.334 784.548 111.242 783.456 111.242 782.108V782.108Z" fill="#6C7072"/>
<rect x="22" y="656" width="72" height="72" rx="22" fill="#2E2F38"/>
<path d="M52.69 706C52.4167 706 52.1843 705.918 51.993 705.754C51.829 705.563 51.747 705.33 51.747 705.057V702.105C51.747 701.832 51.829 701.613 51.993 701.449C52.1843 701.258 52.4167 701.162 52.69 701.162H55.642C55.9153 701.162 56.134 701.258 56.298 701.449C56.4893 701.613 56.585 701.832 56.585 702.105V705.057C56.585 705.33 56.4893 705.563 56.298 705.754C56.134 705.918 55.9153 706 55.642 706H52.69Z" fill="white"/>
<rect x="105" y="656" width="72" height="72" rx="22" fill="#2E2F38"/>
<path d="M144.997 706.41C143.111 706.41 141.512 706.123 140.2 705.549C138.915 704.948 137.863 704.128 137.043 703.089C136.223 702.05 135.622 700.861 135.239 699.522C134.884 698.183 134.679 696.761 134.624 695.258C134.597 694.52 134.569 693.741 134.542 692.921C134.542 692.101 134.542 691.281 134.542 690.461C134.569 689.614 134.597 688.807 134.624 688.042C134.651 686.539 134.856 685.117 135.239 683.778C135.649 682.411 136.25 681.222 137.043 680.211C137.863 679.172 138.929 678.366 140.241 677.792C141.553 677.191 143.138 676.89 144.997 676.89C146.883 676.89 148.468 677.191 149.753 677.792C151.065 678.366 152.131 679.172 152.951 680.211C153.771 681.222 154.372 682.411 154.755 683.778C155.165 685.117 155.384 686.539 155.411 688.042C155.438 688.807 155.452 689.614 155.452 690.461C155.479 691.281 155.479 692.101 155.452 692.921C155.452 693.741 155.438 694.52 155.411 695.258C155.384 696.761 155.165 698.183 154.755 699.522C154.372 700.861 153.771 702.05 152.951 703.089C152.158 704.128 151.106 704.948 149.794 705.549C148.509 706.123 146.91 706.41 144.997 706.41ZM144.997 702.925C147.129 702.925 148.701 702.228 149.712 700.834C150.751 699.413 151.284 697.486 151.311 695.053C151.366 694.26 151.393 693.495 151.393 692.757C151.393 691.992 151.393 691.24 151.393 690.502C151.393 689.737 151.366 688.985 151.311 688.247C151.284 685.869 150.751 683.969 149.712 682.548C148.701 681.099 147.129 680.375 144.997 680.375C142.892 680.375 141.321 681.099 140.282 682.548C139.271 683.969 138.738 685.869 138.683 688.247C138.683 688.985 138.669 689.737 138.642 690.502C138.642 691.24 138.642 691.992 138.642 692.757C138.669 693.495 138.683 694.26 138.683 695.053C138.738 697.486 139.284 699.413 140.323 700.834C141.362 702.228 142.92 702.925 144.997 702.925Z" fill="white"/>
<rect x="188" y="656" width="72" height="72" rx="22" fill="#2E2F38"/>
<path d="M237 702H220C219.735 702 219.48 701.895 219.293 701.707L210.293 692.707C210.105 692.519 210 692.265 210 692C210 691.735 210.105 691.481 210.293 691.293L219.293 682.293C219.48 682.105 219.735 682 220 682H237C237.265 682 237.519 682.105 237.707 682.293C237.894 682.48 238 682.735 238 683V701C238 701.265 237.894 701.52 237.707 701.707C237.519 701.895 237.265 702 237 702ZM220.414 700H236V684H220.414L212.414 692L220.414 700Z" fill="white"/>
<path d="M228.414 692L233 687.414L231.586 686L227 690.586L222.414 686L221 687.414L225.586 692L221 696.586L222.414 698L227 693.414L231.586 698L233 696.586L228.414 692Z" fill="white"/>
<rect x="271" y="656" width="72" height="72" rx="22" fill="#4B5EFC"/>
<path d="M301.854 690.174C301.581 690.174 301.362 690.092 301.198 689.928C301.034 689.764 300.952 689.545 300.952 689.272V687.878C300.952 687.605 301.034 687.386 301.198 687.222C301.362 687.058 301.581 686.976 301.854 686.976H317.475C317.748 686.976 317.967 687.058 318.131 687.222C318.322 687.386 318.418 687.605 318.418 687.878V689.272C318.418 689.545 318.322 689.764 318.131 689.928C317.967 690.092 317.748 690.174 317.475 690.174H301.854ZM301.854 700.424C301.581 700.424 301.362 700.342 301.198 700.178C301.034 700.014 300.952 699.795 300.952 699.522V698.128C300.952 697.855 301.034 697.636 301.198 697.472C301.362 697.308 301.581 697.226 301.854 697.226H317.475C317.748 697.226 317.967 697.308 318.131 697.472C318.322 697.636 318.418 697.855 318.418 698.128V699.522C318.418 699.795 318.322 700.014 318.131 700.178C317.967 700.342 317.748 700.424 317.475 700.424H301.854Z" fill="white"/>
<rect x="22" y="574" width="72" height="72" rx="22" fill="#2E2F38"/>
<path d="M60.316 624C60.0427 624 59.8103 623.918 59.619 623.754C59.455 623.563 59.373 623.33 59.373 623.057V600.097L52.567 605.345C52.3483 605.509 52.116 605.577 51.87 605.55C51.624 605.523 51.419 605.4 51.255 605.181L50.189 603.828C50.025 603.582 49.9567 603.336 49.984 603.09C50.0387 602.844 50.1753 602.639 50.394 602.475L59.332 595.587C59.5233 595.45 59.701 595.368 59.865 595.341C60.029 595.314 60.2067 595.3 60.398 595.3H62.489C62.7623 595.3 62.981 595.396 63.145 595.587C63.309 595.751 63.391 595.97 63.391 596.243V623.057C63.391 623.33 63.309 623.563 63.145 623.754C62.981 623.918 62.7623 624 62.489 624H60.316Z" fill="white"/>
<rect x="105" y="574" width="72" height="72" rx="22" fill="#2E2F38"/>
<path d="M134.952 624C134.679 624 134.446 623.918 134.255 623.754C134.091 623.563 134.009 623.33 134.009 623.057V621.745C134.009 621.499 134.077 621.226 134.214 620.925C134.351 620.624 134.624 620.296 135.034 619.941L143.726 611.249C145.12 610.074 146.213 609.076 147.006 608.256C147.826 607.409 148.4 606.602 148.728 605.837C149.083 605.072 149.261 604.279 149.261 603.459C149.261 601.901 148.824 600.671 147.949 599.769C147.074 598.84 145.776 598.375 144.054 598.375C142.961 598.375 142.018 598.607 141.225 599.072C140.432 599.509 139.804 600.124 139.339 600.917C138.902 601.682 138.615 602.557 138.478 603.541C138.423 603.896 138.273 604.142 138.027 604.279C137.808 604.416 137.603 604.484 137.412 604.484H135.28C135.034 604.484 134.829 604.416 134.665 604.279C134.501 604.115 134.419 603.924 134.419 603.705C134.446 602.666 134.665 601.628 135.075 600.589C135.485 599.523 136.086 598.566 136.879 597.719C137.699 596.872 138.697 596.188 139.872 595.669C141.075 595.122 142.469 594.849 144.054 594.849C146.213 594.849 147.976 595.245 149.343 596.038C150.737 596.803 151.762 597.828 152.418 599.113C153.074 600.398 153.402 601.805 153.402 603.336C153.402 604.539 153.197 605.646 152.787 606.657C152.377 607.641 151.776 608.611 150.983 609.568C150.218 610.497 149.261 611.454 148.113 612.438L140.241 620.433H153.033C153.334 620.433 153.566 620.515 153.73 620.679C153.921 620.843 154.017 621.075 154.017 621.376V623.057C154.017 623.33 153.921 623.563 153.73 623.754C153.566 623.918 153.334 624 153.033 624H134.952Z" fill="white"/>
<rect x="188" y="574" width="72" height="72" rx="22" fill="#2E2F38"/>
<path d="M227.218 624.41C225.496 624.41 223.993 624.205 222.708 623.795C221.423 623.358 220.344 622.784 219.469 622.073C218.594 621.362 217.925 620.583 217.46 619.736C217.023 618.889 216.79 618.014 216.763 617.112C216.763 616.866 216.845 616.675 217.009 616.538C217.173 616.401 217.378 616.333 217.624 616.333H219.633C219.879 616.333 220.098 616.388 220.289 616.497C220.48 616.606 220.644 616.839 220.781 617.194C221.054 618.178 221.519 618.943 222.175 619.49C222.858 620.037 223.637 620.419 224.512 620.638C225.414 620.829 226.316 620.925 227.218 620.925C229.104 620.925 230.635 620.474 231.81 619.572C232.985 618.67 233.573 617.344 233.573 615.595C233.573 613.818 233.04 612.547 231.974 611.782C230.908 611.017 229.432 610.634 227.546 610.634H223.651C223.378 610.634 223.145 610.552 222.954 610.388C222.79 610.224 222.708 609.992 222.708 609.691V608.584C222.708 608.338 222.749 608.133 222.831 607.969C222.94 607.778 223.05 607.614 223.159 607.477L231.113 598.785H219.018C218.745 598.785 218.512 598.703 218.321 598.539C218.157 598.375 218.075 598.143 218.075 597.842V596.284C218.075 595.983 218.157 595.751 218.321 595.587C218.512 595.396 218.745 595.3 219.018 595.3H235.377C235.678 595.3 235.91 595.396 236.074 595.587C236.265 595.751 236.361 595.983 236.361 596.284V597.76C236.361 597.951 236.306 598.129 236.197 598.293C236.115 598.43 236.019 598.566 235.91 598.703L227.997 607.518L228.653 607.559C230.457 607.614 232.029 607.942 233.368 608.543C234.735 609.144 235.787 610.046 236.525 611.249C237.29 612.424 237.673 613.914 237.673 615.718C237.673 617.549 237.222 619.121 236.32 620.433C235.418 621.718 234.174 622.702 232.589 623.385C231.004 624.068 229.213 624.41 227.218 624.41Z" fill="white"/>
<rect x="271" y="574" width="72" height="72" rx="22" fill="#4B5EFC"/>
<path d="M310.013 622.647C309.74 622.647 309.507 622.565 309.316 622.401C309.152 622.21 309.07 621.977 309.07 621.704V613.176H300.665C300.392 613.176 300.159 613.094 299.968 612.93C299.804 612.739 299.722 612.506 299.722 612.233V610.921C299.722 610.648 299.804 610.429 299.968 610.265C300.159 610.074 300.392 609.978 300.665 609.978H309.07V601.696C309.07 601.423 309.152 601.204 309.316 601.04C309.507 600.849 309.74 600.753 310.013 600.753H311.448C311.721 600.753 311.94 600.849 312.104 601.04C312.295 601.204 312.391 601.423 312.391 601.696V609.978H320.837C321.11 609.978 321.329 610.074 321.493 610.265C321.684 610.429 321.78 610.648 321.78 610.921V612.233C321.78 612.506 321.684 612.739 321.493 612.93C321.329 613.094 321.11 613.176 320.837 613.176H312.391V621.704C312.391 621.977 312.295 622.21 312.104 622.401C311.94 622.565 311.721 622.647 311.448 622.647H310.013Z" fill="white"/>
<rect x="22" y="492" width="72" height="72" rx="22" fill="#2E2F38"/>
<path d="M65.441 542C65.1677 542 64.9353 541.918 64.744 541.754C64.58 541.563 64.498 541.33 64.498 541.057V535.153H51.214C50.9407 535.153 50.7083 535.071 50.517 534.907C50.353 534.716 50.271 534.483 50.271 534.21V532.57C50.271 532.461 50.2983 532.297 50.353 532.078C50.435 531.832 50.558 531.586 50.722 531.34L63.022 513.997C63.35 513.532 63.8557 513.3 64.539 513.3H67.491C67.7643 513.3 67.983 513.396 68.147 513.587C68.3383 513.751 68.434 513.97 68.434 514.243V531.586H72.124C72.4247 531.586 72.657 531.682 72.821 531.873C73.0123 532.037 73.108 532.256 73.108 532.529V534.21C73.108 534.483 73.0123 534.716 72.821 534.907C72.657 535.071 72.4383 535.153 72.165 535.153H68.434V541.057C68.434 541.33 68.3383 541.563 68.147 541.754C67.983 541.918 67.7643 542 67.491 542H65.441ZM54.658 531.668H64.539V517.605L54.658 531.668Z" fill="white"/>
<rect x="105" y="492" width="72" height="72" rx="22" fill="#2E2F38"/>
<path d="M143.972 542.41C141.813 542.41 139.981 542.041 138.478 541.303C137.002 540.538 135.868 539.554 135.075 538.351C134.31 537.148 133.9 535.877 133.845 534.538C133.818 534.292 133.886 534.101 134.05 533.964C134.214 533.827 134.419 533.759 134.665 533.759H136.879C137.125 533.759 137.344 533.814 137.535 533.923C137.726 534.032 137.877 534.265 137.986 534.62C138.259 535.631 138.697 536.465 139.298 537.121C139.927 537.75 140.637 538.214 141.43 538.515C142.25 538.788 143.097 538.925 143.972 538.925C145.147 538.925 146.213 538.693 147.17 538.228C148.154 537.736 148.933 537.025 149.507 536.096C150.081 535.139 150.368 533.991 150.368 532.652C150.368 531.422 150.081 530.37 149.507 529.495C148.96 528.593 148.195 527.91 147.211 527.445C146.254 526.953 145.175 526.707 143.972 526.707C143.07 526.707 142.332 526.816 141.758 527.035C141.184 527.254 140.692 527.513 140.282 527.814C139.899 528.115 139.544 528.374 139.216 528.593C138.915 528.812 138.574 528.921 138.191 528.921H136.059C135.813 528.921 135.594 528.839 135.403 528.675C135.212 528.484 135.13 528.265 135.157 528.019L136.469 514.325C136.496 513.997 136.592 513.751 136.756 513.587C136.947 513.396 137.193 513.3 137.494 513.3H151.803C152.076 513.3 152.295 513.396 152.459 513.587C152.65 513.751 152.746 513.97 152.746 514.243V515.842C152.746 516.143 152.65 516.375 152.459 516.539C152.295 516.703 152.076 516.785 151.803 516.785H139.995L139.216 524.862C139.599 524.616 140.214 524.329 141.061 524.001C141.908 523.646 143.07 523.468 144.546 523.468C145.885 523.468 147.143 523.673 148.318 524.083C149.521 524.493 150.587 525.094 151.516 525.887C152.445 526.68 153.17 527.65 153.689 528.798C154.208 529.919 154.468 531.217 154.468 532.693C154.468 534.77 154.003 536.533 153.074 537.982C152.172 539.431 150.928 540.538 149.343 541.303C147.785 542.041 145.995 542.41 143.972 542.41Z" fill="white"/>
<rect x="188" y="492" width="72" height="72" rx="22" fill="#2E2F38"/>
<path d="M227.628 542.41C225.359 542.41 223.432 541.959 221.847 541.057C220.262 540.128 219.045 538.925 218.198 537.449C217.378 535.946 216.968 534.319 216.968 532.57C216.968 531.75 217.064 530.971 217.255 530.233C217.474 529.468 217.733 528.757 218.034 528.101C218.362 527.418 218.676 526.816 218.977 526.297C219.305 525.75 219.592 525.313 219.838 524.985L227.628 514.12C227.765 513.983 227.929 513.819 228.12 513.628C228.311 513.409 228.598 513.3 228.981 513.3H231.154C231.4 513.3 231.591 513.396 231.728 513.587C231.892 513.751 231.974 513.956 231.974 514.202C231.974 514.311 231.96 514.421 231.933 514.53C231.906 514.612 231.865 514.68 231.81 514.735L225.824 523.099C226.152 522.99 226.521 522.921 226.931 522.894C227.368 522.839 227.778 522.812 228.161 522.812C229.664 522.839 231.031 523.113 232.261 523.632C233.491 524.151 234.543 524.862 235.418 525.764C236.32 526.639 237.003 527.664 237.468 528.839C237.933 529.987 238.165 531.217 238.165 532.529C238.165 534.251 237.755 535.864 236.935 537.367C236.115 538.87 234.912 540.087 233.327 541.016C231.769 541.945 229.869 542.41 227.628 542.41ZM227.587 538.925C228.735 538.925 229.801 538.679 230.785 538.187C231.769 537.695 232.562 536.984 233.163 536.055C233.792 535.098 234.106 533.937 234.106 532.57C234.106 531.176 233.805 530.014 233.204 529.085C232.603 528.128 231.796 527.418 230.785 526.953C229.801 526.461 228.735 526.215 227.587 526.215C226.439 526.215 225.373 526.461 224.389 526.953C223.405 527.418 222.599 528.128 221.97 529.085C221.369 530.014 221.068 531.176 221.068 532.57C221.068 533.937 221.369 535.098 221.97 536.055C222.599 536.984 223.405 537.695 224.389 538.187C225.373 538.679 226.439 538.925 227.587 538.925Z" fill="white"/>
<rect x="271" y="492" width="72" height="72" rx="22" fill="#4B5EFC"/>
<path d="M301.772 531.422C301.499 531.422 301.266 531.34 301.075 531.176C300.911 530.985 300.829 530.752 300.829 530.479V528.921C300.829 528.648 300.911 528.429 301.075 528.265C301.266 528.074 301.499 527.978 301.772 527.978H314.072C314.345 527.978 314.564 528.074 314.728 528.265C314.919 528.429 315.015 528.648 315.015 528.921V530.479C315.015 530.752 314.919 530.985 314.728 531.176C314.564 531.34 314.345 531.422 314.072 531.422H301.772Z" fill="white"/>
<rect x="22" y="410" width="72" height="72" rx="22" fill="#2E2F38"/>
<path d="M55.109 460C54.863 460 54.658 459.918 54.494 459.754C54.3573 459.563 54.289 459.344 54.289 459.098C54.289 459.016 54.3163 458.893 54.371 458.729L64.58 434.867H51.132C50.8587 434.867 50.6263 434.785 50.435 434.621C50.271 434.43 50.189 434.197 50.189 433.924V432.284C50.189 431.983 50.271 431.751 50.435 431.587C50.6263 431.396 50.8587 431.3 51.132 431.3H67.942C68.2427 431.3 68.475 431.396 68.639 431.587C68.8303 431.751 68.926 431.983 68.926 432.284V433.801C68.926 434.156 68.8987 434.443 68.844 434.662C68.7893 434.881 68.7073 435.127 68.598 435.4L58.471 458.975C58.389 459.194 58.2523 459.426 58.061 459.672C57.897 459.891 57.651 460 57.323 460H55.109Z" fill="white"/>
<rect x="105" y="410" width="72" height="72" rx="22" fill="#2E2F38"/>
<path d="M145.038 460.41C143.453 460.41 141.99 460.219 140.651 459.836C139.339 459.426 138.205 458.852 137.248 458.114C136.319 457.349 135.594 456.433 135.075 455.367C134.556 454.301 134.296 453.098 134.296 451.759C134.296 450.092 134.692 448.657 135.485 447.454C136.305 446.251 137.385 445.336 138.724 444.707C137.658 444.078 136.824 443.258 136.223 442.247C135.622 441.236 135.321 440.033 135.321 438.639C135.321 436.999 135.717 435.619 136.51 434.498C137.33 433.35 138.464 432.462 139.913 431.833C141.389 431.204 143.097 430.89 145.038 430.89C146.951 430.89 148.632 431.204 150.081 431.833C151.557 432.434 152.691 433.309 153.484 434.457C154.304 435.605 154.714 436.985 154.714 438.598C154.714 439.992 154.413 441.208 153.812 442.247C153.211 443.258 152.391 444.078 151.352 444.707C152.691 445.336 153.757 446.251 154.55 447.454C155.37 448.657 155.78 450.092 155.78 451.759C155.78 453.536 155.329 455.08 154.427 456.392C153.525 457.677 152.268 458.674 150.655 459.385C149.042 460.068 147.17 460.41 145.038 460.41ZM145.038 457.13C146.295 457.13 147.43 456.911 148.441 456.474C149.452 456.037 150.259 455.422 150.86 454.629C151.461 453.809 151.762 452.852 151.762 451.759C151.762 450.638 151.461 449.695 150.86 448.93C150.259 448.137 149.452 447.536 148.441 447.126C147.43 446.689 146.295 446.47 145.038 446.47C143.781 446.47 142.633 446.689 141.594 447.126C140.583 447.536 139.776 448.137 139.175 448.93C138.574 449.695 138.273 450.638 138.273 451.759C138.273 452.852 138.574 453.809 139.175 454.629C139.776 455.422 140.583 456.037 141.594 456.474C142.633 456.911 143.781 457.13 145.038 457.13ZM145.038 443.231C146.077 443.231 147.033 443.04 147.908 442.657C148.81 442.274 149.521 441.755 150.04 441.099C150.587 440.443 150.86 439.65 150.86 438.721C150.86 437.792 150.6 436.985 150.081 436.302C149.589 435.619 148.892 435.099 147.99 434.744C147.115 434.361 146.131 434.17 145.038 434.17C143.945 434.17 142.947 434.361 142.045 434.744C141.17 435.099 140.473 435.619 139.954 436.302C139.435 436.985 139.175 437.792 139.175 438.721C139.175 439.678 139.435 440.498 139.954 441.181C140.473 441.837 141.17 442.343 142.045 442.698C142.947 443.053 143.945 443.231 145.038 443.231Z" fill="white"/>
<rect x="188" y="410" width="72" height="72" rx="22" fill="#2E2F38"/>
<path d="M222.913 460C222.667 460 222.462 459.918 222.298 459.754C222.161 459.563 222.093 459.344 222.093 459.098C222.093 458.961 222.107 458.852 222.134 458.77C222.189 458.688 222.23 458.62 222.257 458.565L228.53 449.832C227.847 449.996 227.109 450.078 226.316 450.078C224.785 450.051 223.419 449.777 222.216 449.258C221.013 448.739 219.988 448.042 219.141 447.167C218.294 446.265 217.651 445.254 217.214 444.133C216.777 443.012 216.558 441.837 216.558 440.607C216.558 439.404 216.763 438.229 217.173 437.081C217.61 435.933 218.253 434.894 219.1 433.965C219.975 433.036 221.054 432.298 222.339 431.751C223.624 431.177 225.141 430.89 226.89 430.89C228.612 430.89 230.115 431.163 231.4 431.71C232.712 432.229 233.805 432.954 234.68 433.883C235.582 434.785 236.238 435.81 236.648 436.958C237.085 438.106 237.304 439.295 237.304 440.525C237.304 441.646 237.14 442.671 236.812 443.6C236.484 444.529 236.088 445.363 235.623 446.101C235.186 446.839 234.748 447.522 234.311 448.151L226.439 459.18C226.33 459.317 226.179 459.494 225.988 459.713C225.797 459.904 225.51 460 225.127 460H222.913ZM226.89 446.757C228.038 446.757 229.09 446.511 230.047 446.019C231.031 445.5 231.81 444.789 232.384 443.887C232.958 442.958 233.245 441.851 233.245 440.566C233.245 439.281 232.958 438.188 232.384 437.286C231.81 436.357 231.031 435.646 230.047 435.154C229.09 434.635 228.038 434.375 226.89 434.375C225.769 434.375 224.731 434.635 223.774 435.154C222.817 435.646 222.052 436.357 221.478 437.286C220.904 438.188 220.617 439.281 220.617 440.566C220.617 441.851 220.904 442.958 221.478 443.887C222.052 444.789 222.817 445.5 223.774 446.019C224.731 446.511 225.769 446.757 226.89 446.757Z" fill="white"/>
<rect x="271" y="410" width="72" height="72" rx="22" fill="#4B5EFC"/>
<path d="M300.05 460C299.831 460 299.626 459.918 299.435 459.754C299.271 459.59 299.189 459.385 299.189 459.139C299.189 459.057 299.203 458.961 299.23 458.852C299.285 458.715 299.367 458.565 299.476 458.401L306.61 449.094L299.927 440.279C299.818 440.115 299.736 439.978 299.681 439.869C299.654 439.76 299.64 439.65 299.64 439.541C299.64 439.295 299.722 439.09 299.886 438.926C300.05 438.762 300.255 438.68 300.501 438.68H302.592C302.893 438.68 303.111 438.762 303.248 438.926C303.412 439.063 303.549 439.199 303.658 439.336L309.111 446.429L314.564 439.377C314.673 439.24 314.796 439.09 314.933 438.926C315.097 438.762 315.329 438.68 315.63 438.68H317.639C317.885 438.68 318.09 438.762 318.254 438.926C318.418 439.09 318.5 439.295 318.5 439.541C318.5 439.65 318.473 439.76 318.418 439.869C318.391 439.978 318.322 440.115 318.213 440.279L311.448 449.176L318.582 458.401C318.691 458.565 318.76 458.702 318.787 458.811C318.842 458.92 318.869 459.03 318.869 459.139C318.869 459.385 318.787 459.59 318.623 459.754C318.459 459.918 318.254 460 318.008 460H315.835C315.562 460 315.343 459.932 315.179 459.795C315.015 459.658 314.878 459.522 314.769 459.385L308.988 451.882L303.207 459.385C303.098 459.494 302.961 459.631 302.797 459.795C302.66 459.932 302.442 460 302.141 460H300.05Z" fill="white"/>
<rect x="22" y="328" width="72" height="72" rx="22" fill="#4E505F"/>
<path d="M60.521 378.41C57.7057 378.41 55.4643 377.549 53.797 375.827C52.1297 374.078 51.214 371.7 51.05 368.693C51.0227 368.338 51.009 367.887 51.009 367.34C51.009 366.766 51.0227 366.301 51.05 365.946C51.1593 364.005 51.6103 362.311 52.403 360.862C53.1957 359.386 54.2753 358.252 55.642 357.459C57.036 356.666 58.6623 356.27 60.521 356.27C62.5983 356.27 64.334 356.707 65.728 357.582C67.1493 358.457 68.229 359.7 68.967 361.313C69.705 362.926 70.074 364.812 70.074 366.971V367.668C70.074 367.969 69.9783 368.201 69.787 368.365C69.623 368.529 69.4043 368.611 69.131 368.611H54.945C54.945 368.638 54.945 368.693 54.945 368.775C54.945 368.857 54.945 368.925 54.945 368.98C54.9997 370.101 55.2457 371.153 55.683 372.137C56.1203 373.094 56.749 373.873 57.569 374.474C58.389 375.075 59.373 375.376 60.521 375.376C61.505 375.376 62.325 375.226 62.981 374.925C63.637 374.624 64.17 374.296 64.58 373.941C64.99 373.558 65.2633 373.271 65.4 373.08C65.646 372.725 65.8373 372.52 65.974 372.465C66.1107 372.383 66.3293 372.342 66.63 372.342H68.598C68.8713 372.342 69.09 372.424 69.254 372.588C69.4453 372.725 69.5273 372.93 69.5 373.203C69.4727 373.613 69.254 374.119 68.844 374.72C68.434 375.294 67.8463 375.868 67.081 376.442C66.3157 377.016 65.3863 377.494 64.293 377.877C63.1997 378.232 61.9423 378.41 60.521 378.41ZM54.945 365.782H66.179V365.659C66.179 364.429 65.9467 363.336 65.482 362.379C65.0447 361.422 64.4023 360.671 63.555 360.124C62.7077 359.55 61.6963 359.263 60.521 359.263C59.3457 359.263 58.3343 359.55 57.487 360.124C56.667 360.671 56.0383 361.422 55.601 362.379C55.1637 363.336 54.945 364.429 54.945 365.659V365.782Z" fill="white"/>
<rect x="105" y="328" width="72" height="72" rx="22" fill="#4E505F"/>
<path d="M130.05 378C129.831 378 129.626 377.918 129.435 377.754C129.271 377.59 129.189 377.385 129.189 377.139C129.189 377.057 129.203 376.961 129.23 376.852C129.285 376.715 129.367 376.565 129.476 376.401L136.61 367.094L129.927 358.279C129.818 358.115 129.736 357.978 129.681 357.869C129.654 357.76 129.64 357.65 129.64 357.541C129.64 357.295 129.722 357.09 129.886 356.926C130.05 356.762 130.255 356.68 130.501 356.68H132.592C132.893 356.68 133.111 356.762 133.248 356.926C133.412 357.063 133.549 357.199 133.658 357.336L139.111 364.429L144.564 357.377C144.673 357.24 144.796 357.09 144.933 356.926C145.097 356.762 145.329 356.68 145.63 356.68H147.639C147.885 356.68 148.09 356.762 148.254 356.926C148.418 357.09 148.5 357.295 148.5 357.541C148.5 357.65 148.473 357.76 148.418 357.869C148.391 357.978 148.322 358.115 148.213 358.279L141.448 367.176L148.582 376.401C148.691 376.565 148.76 376.702 148.787 376.811C148.842 376.92 148.869 377.03 148.869 377.139C148.869 377.385 148.787 377.59 148.623 377.754C148.459 377.918 148.254 378 148.008 378H145.835C145.562 378 145.343 377.932 145.179 377.795C145.015 377.658 144.878 377.522 144.769 377.385L138.988 369.882L133.207 377.385C133.098 377.494 132.961 377.631 132.797 377.795C132.66 377.932 132.442 378 132.141 378H130.05ZM152.234 363.65C151.632 363.65 151.332 363.349 151.332 362.748V361.846C151.332 361.627 151.4 361.422 151.537 361.231C151.673 361.012 151.933 360.766 152.316 360.493C153.983 359.263 155.336 358.279 156.375 357.541C157.413 356.803 158.165 356.147 158.63 355.573C159.094 354.999 159.327 354.37 159.327 353.687C159.327 353.086 159.108 352.607 158.671 352.252C158.233 351.869 157.687 351.678 157.031 351.678C156.375 351.678 155.883 351.787 155.555 352.006C155.254 352.197 155.035 352.416 154.899 352.662C154.762 352.908 154.653 353.113 154.571 353.277C154.407 353.578 154.256 353.783 154.12 353.892C153.983 353.974 153.805 354.015 153.587 354.015H152.439C151.892 354.015 151.646 353.755 151.701 353.236C151.755 352.498 152.015 351.828 152.48 351.227C152.972 350.598 153.614 350.093 154.407 349.71C155.199 349.3 156.074 349.095 157.031 349.095C158.643 349.095 159.914 349.546 160.844 350.448C161.8 351.35 162.279 352.416 162.279 353.646C162.279 354.63 162.06 355.491 161.623 356.229C161.185 356.94 160.516 357.664 159.614 358.402C158.712 359.14 157.55 360.001 156.129 360.985H161.951C162.552 360.985 162.853 361.286 162.853 361.887V362.748C162.853 363.349 162.552 363.65 161.951 363.65H152.234Z" fill="white"/>
<rect x="188" y="328" width="72" height="72" rx="22" fill="#4E505F"/>
<path d="M221.35 377C221.093 377 220.907 376.942 220.79 376.825C220.673 376.685 220.58 376.545 220.51 376.405L214.945 359.885C214.898 359.768 214.875 359.652 214.875 359.535C214.875 359.325 214.945 359.15 215.085 359.01C215.225 358.87 215.4 358.8 215.61 358.8H217.01C217.267 358.8 217.465 358.87 217.605 359.01C217.745 359.15 217.827 359.278 217.85 359.395L222.47 373.185L229.61 347.74C229.657 347.553 229.762 347.367 229.925 347.18C230.088 346.993 230.287 346.9 230.52 346.9H236.715C236.948 346.9 237.135 346.982 237.275 347.145C237.415 347.285 237.485 347.472 237.485 347.705V348.79C237.485 349.023 237.415 349.222 237.275 349.385C237.135 349.525 236.948 349.595 236.715 349.595H232.165L224.605 376.125C224.512 376.405 224.395 376.627 224.255 376.79C224.115 376.93 223.917 377 223.66 377H221.35Z" fill="white"/>
<rect x="271" y="328" width="72" height="72" rx="22" fill="#4B5EFC"/>
<path d="M301.608 367.299C301.335 367.299 301.102 367.217 300.911 367.053C300.747 366.889 300.665 366.67 300.665 366.397V365.003C300.665 364.73 300.747 364.511 300.911 364.347C301.102 364.183 301.335 364.101 301.608 364.101H317.188C317.489 364.101 317.721 364.183 317.885 364.347C318.049 364.511 318.131 364.73 318.131 365.003V366.397C318.131 366.67 318.049 366.889 317.885 367.053C317.721 367.217 317.489 367.299 317.188 367.299H301.608ZM308.086 375.171C307.813 375.171 307.58 375.089 307.389 374.925C307.225 374.761 307.143 374.529 307.143 374.228V371.768C307.143 371.495 307.225 371.262 307.389 371.071C307.58 370.88 307.813 370.784 308.086 370.784H310.669C310.942 370.784 311.161 370.88 311.325 371.071C311.516 371.262 311.612 371.495 311.612 371.768V374.228C311.612 374.529 311.516 374.761 311.325 374.925C311.161 375.089 310.942 375.171 310.669 375.171H308.086ZM308.086 360.575C307.813 360.575 307.58 360.493 307.389 360.329C307.225 360.138 307.143 359.905 307.143 359.632V357.172C307.143 356.871 307.225 356.639 307.389 356.475C307.58 356.284 307.813 356.188 308.086 356.188H310.669C310.942 356.188 311.161 356.284 311.325 356.475C311.516 356.639 311.612 356.871 311.612 357.172V359.632C311.612 359.905 311.516 360.138 311.325 360.329C311.161 360.493 310.942 360.575 310.669 360.575H308.086Z" fill="white"/>
<rect x="147" y="49" width="72" height="33" rx="16.5" fill="#2E2F38"/>
<circle cx="165" cy="65" r="10" fill="#4E505F"/>
<path d="M198.059 55C194.166 56.5644 191 59.9589 191 64.4111C191 67.2195 192.116 69.9128 194.101 71.8986C196.087 73.8844 198.781 75 201.589 75C206.041 75 209.436 71.8344 211 67.9411C196.744 70.6278 196.711 60.7111 198.059 55Z" stroke="#4B5EFC" stroke-width="1.66667" stroke-linecap="round" stroke-linejoin="round"/>
<path d="M92.46 305C91.8933 305 91.44 304.83 91.1 304.49C90.76 304.15 90.59 303.697 90.59 303.13V252.47L75.375 264.2C74.9217 264.54 74.44 264.682 73.93 264.625C73.4767 264.568 73.08 264.313 72.74 263.86L71.805 262.67C71.465 262.217 71.3233 261.763 71.38 261.31C71.4367 260.8 71.6917 260.375 72.145 260.035L90.25 246.095C90.6467 245.812 91.015 245.642 91.355 245.585C91.695 245.528 92.0633 245.5 92.46 245.5H94.075C94.6417 245.5 95.095 245.67 95.435 246.01C95.775 246.35 95.945 246.803 95.945 247.37V303.13C95.945 303.697 95.775 304.15 95.435 304.49C95.095 304.83 94.6417 305 94.075 305H92.46ZM109.072 311.375C108.619 311.375 108.279 311.205 108.052 310.865C107.882 310.525 107.826 310.1 107.882 309.59L109.497 299.39C109.611 298.71 109.809 298.172 110.092 297.775C110.432 297.322 110.942 297.095 111.622 297.095H115.447C115.844 297.095 116.156 297.237 116.382 297.52C116.609 297.803 116.722 298.115 116.722 298.455C116.722 298.965 116.609 299.475 116.382 299.985L112.727 309.59C112.501 310.157 112.217 310.582 111.877 310.865C111.594 311.205 111.141 311.375 110.517 311.375H109.072ZM129.328 305C128.761 305 128.308 304.83 127.968 304.49C127.628 304.15 127.458 303.697 127.458 303.13V301.855C127.458 301.288 127.6 300.75 127.883 300.24C128.223 299.673 128.79 299.022 129.583 298.285L151.598 276.27C153.751 274.287 155.395 272.558 156.528 271.085C157.661 269.612 158.426 268.167 158.823 266.75C159.276 265.277 159.503 263.662 159.503 261.905C159.503 258.108 158.398 255.133 156.188 252.98C154.035 250.827 150.946 249.75 146.923 249.75C144.373 249.75 142.163 250.26 140.293 251.28C138.423 252.3 136.95 253.745 135.873 255.615C134.796 257.428 134.088 259.553 133.748 261.99C133.691 262.67 133.436 263.18 132.983 263.52C132.53 263.803 132.133 263.945 131.793 263.945H130.093C129.526 263.945 129.073 263.803 128.733 263.52C128.45 263.18 128.308 262.783 128.308 262.33C128.365 260.403 128.761 258.42 129.498 256.38C130.235 254.283 131.34 252.357 132.813 250.6C134.343 248.843 136.27 247.427 138.593 246.35C140.916 245.217 143.693 244.65 146.923 244.65C151.23 244.65 154.686 245.472 157.293 247.115C159.956 248.758 161.883 250.883 163.073 253.49C164.263 256.097 164.858 258.902 164.858 261.905C164.858 264.228 164.518 266.382 163.838 268.365C163.158 270.292 162.138 272.19 160.778 274.06C159.418 275.873 157.69 277.743 155.593 279.67L135.703 299.9H164.178C164.801 299.9 165.283 300.07 165.623 300.41C165.963 300.75 166.133 301.232 166.133 301.855V303.13C166.133 303.697 165.963 304.15 165.623 304.49C165.283 304.83 164.801 305 164.178 305H129.328ZM187.687 305C187.177 305 186.752 304.83 186.412 304.49C186.128 304.093 185.987 303.64 185.987 303.13C185.987 302.847 186.043 302.62 186.157 302.45C186.27 302.28 186.355 302.138 186.412 302.025L199.842 283.155C198.142 283.608 196.3 283.835 194.317 283.835C190.917 283.835 187.942 283.268 185.392 282.135C182.898 281.002 180.802 279.5 179.102 277.63C177.458 275.703 176.212 273.607 175.362 271.34C174.568 269.017 174.172 266.665 174.172 264.285C174.172 261.905 174.568 259.553 175.362 257.23C176.212 254.907 177.458 252.81 179.102 250.94C180.802 249.013 182.898 247.483 185.392 246.35C187.942 245.217 190.917 244.65 194.317 244.65C197.717 244.65 200.663 245.217 203.157 246.35C205.707 247.483 207.832 249.013 209.532 250.94C211.232 252.81 212.478 254.907 213.272 257.23C214.122 259.553 214.547 261.905 214.547 264.285C214.547 266.495 214.263 268.507 213.697 270.32C213.13 272.133 212.45 273.72 211.657 275.08C210.92 276.44 210.212 277.602 209.532 278.565L192.022 303.3C191.795 303.583 191.483 303.952 191.087 304.405C190.747 304.802 190.18 305 189.387 305H187.687ZM194.317 278.735C196.98 278.735 199.445 278.14 201.712 276.95C203.978 275.76 205.792 274.088 207.152 271.935C208.512 269.782 209.192 267.232 209.192 264.285C209.192 261.282 208.512 258.703 207.152 256.55C205.792 254.397 203.978 252.725 201.712 251.535C199.445 250.345 196.98 249.75 194.317 249.75C191.653 249.75 189.188 250.345 186.922 251.535C184.712 252.725 182.927 254.397 181.567 256.55C180.207 258.703 179.527 261.282 179.527 264.285C179.527 267.232 180.207 269.782 181.567 271.935C182.927 274.088 184.712 275.76 186.922 276.95C189.188 278.14 191.653 278.735 194.317 278.735ZM243.044 305.85C238.907 305.85 235.394 305.085 232.504 303.555C229.671 302.025 227.489 300.07 225.959 297.69C224.429 295.253 223.607 292.732 223.494 290.125C223.437 289.615 223.579 289.218 223.919 288.935C224.259 288.652 224.684 288.51 225.194 288.51H226.809C227.262 288.51 227.659 288.623 227.999 288.85C228.396 289.077 228.707 289.615 228.934 290.465C229.557 292.902 230.577 294.885 231.994 296.415C233.467 297.945 235.167 299.05 237.094 299.73C239.021 300.41 241.004 300.75 243.044 300.75C245.821 300.75 248.342 300.183 250.609 299.05C252.932 297.917 254.774 296.245 256.134 294.035C257.494 291.825 258.174 289.133 258.174 285.96C258.174 283.013 257.494 280.52 256.134 278.48C254.774 276.383 252.932 274.797 250.609 273.72C248.342 272.587 245.821 272.02 243.044 272.02C240.947 272.02 239.219 272.275 237.859 272.785C236.499 273.295 235.366 273.89 234.459 274.57C233.552 275.25 232.731 275.845 231.994 276.355C231.257 276.865 230.436 277.12 229.529 277.12H227.999C227.489 277.12 227.036 276.95 226.639 276.61C226.242 276.213 226.072 275.76 226.129 275.25L228.679 247.455C228.736 246.832 228.906 246.35 229.189 246.01C229.529 245.67 229.982 245.5 230.549 245.5H258.259C258.826 245.5 259.279 245.67 259.619 246.01C259.959 246.35 260.129 246.803 260.129 247.37V248.73C260.129 249.297 259.959 249.75 259.619 250.09C259.279 250.43 258.826 250.6 258.259 250.6H233.864L232.079 269.81C232.702 269.413 233.892 268.847 235.649 268.11C237.406 267.317 239.871 266.92 243.044 266.92C245.877 266.92 248.512 267.345 250.949 268.195C253.442 268.988 255.624 270.207 257.494 271.85C259.421 273.437 260.894 275.42 261.914 277.8C262.991 280.123 263.529 282.843 263.529 285.96C263.529 290.38 262.594 294.063 260.724 297.01C258.911 299.957 256.446 302.167 253.329 303.64C250.269 305.113 246.841 305.85 243.044 305.85ZM275.049 305C274.482 305 274.029 304.83 273.689 304.49C273.349 304.15 273.179 303.697 273.179 303.13V299.05C273.179 298.483 273.349 298.03 273.689 297.69C274.029 297.293 274.482 297.095 275.049 297.095H279.129C279.695 297.095 280.149 297.293 280.489 297.69C280.885 298.03 281.084 298.483 281.084 299.05V303.13C281.084 303.697 280.885 304.15 280.489 304.49C280.149 304.83 279.695 305 279.129 305H275.049ZM311.028 305.85C306.891 305.85 303.378 305.085 300.488 303.555C297.654 302.025 295.473 300.07 293.943 297.69C292.413 295.253 291.591 292.732 291.478 290.125C291.421 289.615 291.563 289.218 291.903 288.935C292.243 288.652 292.668 288.51 293.178 288.51H294.793C295.246 288.51 295.643 288.623 295.983 288.85C296.379 289.077 296.691 289.615 296.918 290.465C297.541 292.902 298.561 294.885 299.978 296.415C301.451 297.945 303.151 299.05 305.078 299.73C307.004 300.41 308.988 300.75 311.028 300.75C313.804 300.75 316.326 300.183 318.593 299.05C320.916 297.917 322.758 296.245 324.118 294.035C325.478 291.825 326.158 289.133 326.158 285.96C326.158 283.013 325.478 280.52 324.118 278.48C322.758 276.383 320.916 274.797 318.593 273.72C316.326 272.587 313.804 272.02 311.028 272.02C308.931 272.02 307.203 272.275 305.843 272.785C304.483 273.295 303.349 273.89 302.443 274.57C301.536 275.25 300.714 275.845 299.978 276.355C299.241 276.865 298.419 277.12 297.513 277.12H295.983C295.473 277.12 295.019 276.95 294.623 276.61C294.226 276.213 294.056 275.76 294.113 275.25L296.663 247.455C296.719 246.832 296.889 246.35 297.173 246.01C297.513 245.67 297.966 245.5 298.533 245.5H326.243C326.809 245.5 327.263 245.67 327.603 246.01C327.943 246.35 328.113 246.803 328.113 247.37V248.73C328.113 249.297 327.943 249.75 327.603 250.09C327.263 250.43 326.809 250.6 326.243 250.6H301.848L300.063 269.81C300.686 269.413 301.876 268.847 303.633 268.11C305.389 267.317 307.854 266.92 311.028 266.92C313.861 266.92 316.496 267.345 318.933 268.195C321.426 268.988 323.608 270.207 325.478 271.85C327.404 273.437 328.878 275.42 329.898 277.8C330.974 280.123 331.513 282.843 331.513 285.96C331.513 290.38 330.578 294.063 328.708 297.01C326.894 299.957 324.429 302.167 321.313 303.64C318.253 305.113 314.824 305.85 311.028 305.85Z" fill="white"/>
<path d="M211.52 232C211.287 232 211.088 231.93 210.925 231.79C210.785 231.627 210.715 231.428 210.715 231.195V230.075C210.715 229.865 210.773 229.632 210.89 229.375C211.007 229.118 211.24 228.838 211.59 228.535L219.01 221.115C220.2 220.112 221.133 219.26 221.81 218.56C222.51 217.837 223 217.148 223.28 216.495C223.583 215.842 223.735 215.165 223.735 214.465C223.735 213.135 223.362 212.085 222.615 211.315C221.868 210.522 220.76 210.125 219.29 210.125C218.357 210.125 217.552 210.323 216.875 210.72C216.198 211.093 215.662 211.618 215.265 212.295C214.892 212.948 214.647 213.695 214.53 214.535C214.483 214.838 214.355 215.048 214.145 215.165C213.958 215.282 213.783 215.34 213.62 215.34H211.8C211.59 215.34 211.415 215.282 211.275 215.165C211.135 215.025 211.065 214.862 211.065 214.675C211.088 213.788 211.275 212.902 211.625 212.015C211.975 211.105 212.488 210.288 213.165 209.565C213.865 208.842 214.717 208.258 215.72 207.815C216.747 207.348 217.937 207.115 219.29 207.115C221.133 207.115 222.638 207.453 223.805 208.13C224.995 208.783 225.87 209.658 226.43 210.755C226.99 211.852 227.27 213.053 227.27 214.36C227.27 215.387 227.095 216.332 226.745 217.195C226.395 218.035 225.882 218.863 225.205 219.68C224.552 220.473 223.735 221.29 222.755 222.13L216.035 228.955H226.955C227.212 228.955 227.41 229.025 227.55 229.165C227.713 229.305 227.795 229.503 227.795 229.76V231.195C227.795 231.428 227.713 231.627 227.55 231.79C227.41 231.93 227.212 232 226.955 232H211.52ZM239.202 232C238.969 232 238.77 231.93 238.607 231.79C238.467 231.627 238.397 231.428 238.397 231.195V211.595L232.587 216.075C232.4 216.215 232.202 216.273 231.992 216.25C231.782 216.227 231.607 216.122 231.467 215.935L230.557 214.78C230.417 214.57 230.359 214.36 230.382 214.15C230.429 213.94 230.545 213.765 230.732 213.625L238.362 207.745C238.525 207.628 238.677 207.558 238.817 207.535C238.957 207.512 239.109 207.5 239.272 207.5H241.057C241.29 207.5 241.477 207.582 241.617 207.745C241.757 207.885 241.827 208.072 241.827 208.305V231.195C241.827 231.428 241.757 231.627 241.617 231.79C241.477 231.93 241.29 232 241.057 232H239.202ZM254.733 232.35C252.889 232.35 251.326 232.035 250.043 231.405C248.783 230.752 247.814 229.912 247.138 228.885C246.484 227.858 246.134 226.773 246.088 225.63C246.064 225.42 246.123 225.257 246.263 225.14C246.403 225.023 246.578 224.965 246.788 224.965H248.678C248.888 224.965 249.074 225.012 249.238 225.105C249.401 225.198 249.529 225.397 249.623 225.7C249.856 226.563 250.229 227.275 250.743 227.835C251.279 228.372 251.886 228.768 252.563 229.025C253.263 229.258 253.986 229.375 254.733 229.375C255.736 229.375 256.646 229.177 257.463 228.78C258.303 228.36 258.968 227.753 259.458 226.96C259.948 226.143 260.193 225.163 260.193 224.02C260.193 222.97 259.948 222.072 259.458 221.325C258.991 220.555 258.338 219.972 257.498 219.575C256.681 219.155 255.759 218.945 254.733 218.945C253.963 218.945 253.333 219.038 252.843 219.225C252.353 219.412 251.933 219.633 251.583 219.89C251.256 220.147 250.953 220.368 250.673 220.555C250.416 220.742 250.124 220.835 249.798 220.835H247.978C247.768 220.835 247.581 220.765 247.418 220.625C247.254 220.462 247.184 220.275 247.208 220.065L248.328 208.375C248.351 208.095 248.433 207.885 248.573 207.745C248.736 207.582 248.946 207.5 249.203 207.5H261.418C261.651 207.5 261.838 207.582 261.978 207.745C262.141 207.885 262.223 208.072 262.223 208.305V209.67C262.223 209.927 262.141 210.125 261.978 210.265C261.838 210.405 261.651 210.475 261.418 210.475H251.338L250.673 217.37C250.999 217.16 251.524 216.915 252.248 216.635C252.971 216.332 253.963 216.18 255.223 216.18C256.366 216.18 257.439 216.355 258.443 216.705C259.469 217.055 260.379 217.568 261.173 218.245C261.966 218.922 262.584 219.75 263.028 220.73C263.471 221.687 263.693 222.795 263.693 224.055C263.693 225.828 263.296 227.333 262.503 228.57C261.733 229.807 260.671 230.752 259.318 231.405C257.988 232.035 256.459 232.35 254.733 232.35ZM268.136 232C267.903 232 267.705 231.93 267.541 231.79C267.401 231.627 267.331 231.428 267.331 231.195V228.675C267.331 228.442 267.401 228.255 267.541 228.115C267.705 227.952 267.903 227.87 268.136 227.87H270.656C270.89 227.87 271.076 227.952 271.216 228.115C271.38 228.255 271.461 228.442 271.461 228.675V231.195C271.461 231.428 271.38 231.627 271.216 231.79C271.076 231.93 270.89 232 270.656 232H268.136ZM278.987 232C278.777 232 278.602 231.93 278.462 231.79C278.346 231.627 278.287 231.44 278.287 231.23C278.287 231.113 278.299 231.02 278.322 230.95C278.369 230.88 278.404 230.822 278.427 230.775L283.782 223.32C283.199 223.46 282.569 223.53 281.892 223.53C280.586 223.507 279.419 223.273 278.392 222.83C277.366 222.387 276.491 221.792 275.767 221.045C275.044 220.275 274.496 219.412 274.122 218.455C273.749 217.498 273.562 216.495 273.562 215.445C273.562 214.418 273.737 213.415 274.087 212.435C274.461 211.455 275.009 210.568 275.732 209.775C276.479 208.982 277.401 208.352 278.497 207.885C279.594 207.395 280.889 207.15 282.382 207.15C283.852 207.15 285.136 207.383 286.232 207.85C287.352 208.293 288.286 208.912 289.032 209.705C289.802 210.475 290.362 211.35 290.712 212.33C291.086 213.31 291.272 214.325 291.272 215.375C291.272 216.332 291.132 217.207 290.852 218C290.572 218.793 290.234 219.505 289.837 220.135C289.464 220.765 289.091 221.348 288.717 221.885L281.997 231.3C281.904 231.417 281.776 231.568 281.612 231.755C281.449 231.918 281.204 232 280.877 232H278.987ZM282.382 220.695C283.362 220.695 284.261 220.485 285.077 220.065C285.917 219.622 286.582 219.015 287.072 218.245C287.562 217.452 287.807 216.507 287.807 215.41C287.807 214.313 287.562 213.38 287.072 212.61C286.582 211.817 285.917 211.21 285.077 210.79C284.261 210.347 283.362 210.125 282.382 210.125C281.426 210.125 280.539 210.347 279.722 210.79C278.906 211.21 278.252 211.817 277.762 212.61C277.272 213.38 277.027 214.313 277.027 215.41C277.027 216.507 277.272 217.452 277.762 218.245C278.252 219.015 278.906 219.622 279.722 220.065C280.539 220.485 281.426 220.695 282.382 220.695ZM294.729 232C294.543 232 294.368 231.93 294.204 231.79C294.064 231.65 293.994 231.475 293.994 231.265C293.994 231.195 294.006 231.113 294.029 231.02C294.076 230.903 294.146 230.775 294.239 230.635L300.329 222.69L294.624 215.165C294.531 215.025 294.461 214.908 294.414 214.815C294.391 214.722 294.379 214.628 294.379 214.535C294.379 214.325 294.449 214.15 294.589 214.01C294.729 213.87 294.904 213.8 295.114 213.8H296.899C297.156 213.8 297.343 213.87 297.459 214.01C297.599 214.127 297.716 214.243 297.809 214.36L302.464 220.415L307.119 214.395C307.213 214.278 307.318 214.15 307.434 214.01C307.574 213.87 307.773 213.8 308.029 213.8H309.744C309.954 213.8 310.129 213.87 310.269 214.01C310.409 214.15 310.479 214.325 310.479 214.535C310.479 214.628 310.456 214.722 310.409 214.815C310.386 214.908 310.328 215.025 310.234 215.165L304.459 222.76L310.549 230.635C310.643 230.775 310.701 230.892 310.724 230.985C310.771 231.078 310.794 231.172 310.794 231.265C310.794 231.475 310.724 231.65 310.584 231.79C310.444 231.93 310.269 232 310.059 232H308.204C307.971 232 307.784 231.942 307.644 231.825C307.504 231.708 307.388 231.592 307.294 231.475L302.359 225.07L297.424 231.475C297.331 231.568 297.214 231.685 297.074 231.825C296.958 231.942 296.771 232 296.514 232H294.729ZM322.627 232.35C320.69 232.35 319.045 231.965 317.692 231.195C316.338 230.402 315.3 229.375 314.577 228.115C313.877 226.832 313.527 225.443 313.527 223.95C313.527 223.25 313.608 222.585 313.772 221.955C313.958 221.302 314.18 220.695 314.437 220.135C314.717 219.552 314.985 219.038 315.242 218.595C315.522 218.128 315.767 217.755 315.977 217.475L322.627 208.2C322.743 208.083 322.883 207.943 323.047 207.78C323.21 207.593 323.455 207.5 323.782 207.5H325.637C325.847 207.5 326.01 207.582 326.127 207.745C326.267 207.885 326.337 208.06 326.337 208.27C326.337 208.363 326.325 208.457 326.302 208.55C326.278 208.62 326.243 208.678 326.197 208.725L321.087 215.865C321.367 215.772 321.682 215.713 322.032 215.69C322.405 215.643 322.755 215.62 323.082 215.62C324.365 215.643 325.532 215.877 326.582 216.32C327.632 216.763 328.53 217.37 329.277 218.14C330.047 218.887 330.63 219.762 331.027 220.765C331.423 221.745 331.622 222.795 331.622 223.915C331.622 225.385 331.272 226.762 330.572 228.045C329.872 229.328 328.845 230.367 327.492 231.16C326.162 231.953 324.54 232.35 322.627 232.35ZM322.592 229.375C323.572 229.375 324.482 229.165 325.322 228.745C326.162 228.325 326.838 227.718 327.352 226.925C327.888 226.108 328.157 225.117 328.157 223.95C328.157 222.76 327.9 221.768 327.387 220.975C326.873 220.158 326.185 219.552 325.322 219.155C324.482 218.735 323.572 218.525 322.592 218.525C321.612 218.525 320.702 218.735 319.862 219.155C319.022 219.552 318.333 220.158 317.797 220.975C317.283 221.768 317.027 222.76 317.027 223.95C317.027 225.117 317.283 226.108 317.797 226.925C318.333 227.718 319.022 228.325 319.862 228.745C320.702 229.165 321.612 229.375 322.592 229.375Z" fill="#4E505F"/>
</g>
<defs>
<clipPath id="clip0_4_83">
<rect width="365.927" height="792.354" rx="31.2258" fill="white"/>
</clipPath>
</defs>
</svg>
