<svg width="1728" height="1117" viewBox="0 0 1728 1117" fill="none" xmlns="http://www.w3.org/2000/svg">
<rect width="1728" height="1117" fill="#F8F8FD" fill-opacity="0.49"/>
<path d="M1179.22 402.632C1178.32 402.632 1177.6 402.362 1177.06 401.822C1176.52 401.283 1176.25 400.564 1176.25 399.665V319.295L1152.11 337.904C1151.39 338.443 1150.63 338.668 1149.82 338.578C1149.1 338.488 1148.47 338.084 1147.93 337.364L1146.45 335.476C1145.91 334.757 1145.69 334.038 1145.78 333.319C1145.87 332.51 1146.27 331.836 1146.99 331.296L1175.71 309.181C1176.34 308.731 1176.93 308.462 1177.47 308.372C1178 308.282 1178.59 308.237 1179.22 308.237H1181.78C1182.68 308.237 1183.4 308.507 1183.94 309.046C1184.48 309.585 1184.75 310.305 1184.75 311.204V399.665C1184.75 400.564 1184.48 401.283 1183.94 401.822C1183.4 402.362 1182.68 402.632 1181.78 402.632H1179.22ZM1205.57 412.745C1204.85 412.745 1204.31 412.476 1203.95 411.936C1203.69 411.397 1203.6 410.723 1203.69 409.913L1206.25 393.732C1206.43 392.653 1206.74 391.799 1207.19 391.169C1207.73 390.45 1208.54 390.091 1209.62 390.091H1215.69C1216.32 390.091 1216.81 390.315 1217.17 390.765C1217.53 391.214 1217.71 391.709 1217.71 392.248C1217.71 393.057 1217.53 393.866 1217.17 394.675L1211.37 409.913C1211.01 410.812 1210.56 411.487 1210.02 411.936C1209.57 412.476 1208.85 412.745 1207.87 412.745H1205.57ZM1237.71 402.632C1236.81 402.632 1236.09 402.362 1235.55 401.822C1235.01 401.283 1234.74 400.564 1234.74 399.665V397.642C1234.74 396.743 1234.97 395.889 1235.42 395.08C1235.96 394.181 1236.85 393.147 1238.11 391.978L1273.04 357.052C1276.46 353.906 1279.06 351.164 1280.86 348.827C1282.66 346.489 1283.87 344.197 1284.5 341.949C1285.22 339.612 1285.58 337.05 1285.58 334.263C1285.58 328.24 1283.83 323.52 1280.32 320.104C1276.9 316.687 1272.01 314.979 1265.62 314.979C1261.58 314.979 1258.07 315.788 1255.1 317.407C1252.14 319.025 1249.8 321.317 1248.09 324.284C1246.38 327.161 1245.26 330.532 1244.72 334.398C1244.63 335.476 1244.23 336.286 1243.51 336.825C1242.79 337.274 1242.16 337.499 1241.62 337.499H1238.92C1238.02 337.499 1237.3 337.274 1236.76 336.825C1236.32 336.286 1236.09 335.656 1236.09 334.937C1236.18 331.88 1236.81 328.734 1237.98 325.498C1239.15 322.171 1240.9 319.115 1243.24 316.328C1245.66 313.541 1248.72 311.293 1252.41 309.585C1256.09 307.787 1260.5 306.888 1265.62 306.888C1272.45 306.888 1277.94 308.192 1282.07 310.799C1286.3 313.406 1289.36 316.777 1291.24 320.913C1293.13 325.048 1294.08 329.498 1294.08 334.263C1294.08 337.949 1293.54 341.365 1292.46 344.511C1291.38 347.568 1289.76 350.58 1287.6 353.546C1285.45 356.423 1282.7 359.39 1279.38 362.446L1247.82 394.541H1293C1293.99 394.541 1294.75 394.81 1295.29 395.35C1295.83 395.889 1296.1 396.653 1296.1 397.642V399.665C1296.1 400.564 1295.83 401.283 1295.29 401.822C1294.75 402.362 1293.99 402.632 1293 402.632H1237.71ZM1330.29 402.632C1329.48 402.632 1328.81 402.362 1328.27 401.822C1327.82 401.193 1327.6 400.474 1327.6 399.665C1327.6 399.215 1327.69 398.856 1327.86 398.586C1328.04 398.316 1328.18 398.092 1328.27 397.912L1349.58 367.975C1346.88 368.694 1343.96 369.054 1340.81 369.054C1335.42 369.054 1330.7 368.155 1326.65 366.357C1322.7 364.559 1319.37 362.177 1316.67 359.21C1314.07 356.153 1312.09 352.827 1310.74 349.231C1309.48 345.545 1308.85 341.814 1308.85 338.039C1308.85 334.263 1309.48 330.532 1310.74 326.846C1312.09 323.16 1314.07 319.834 1316.67 316.867C1319.37 313.811 1322.7 311.383 1326.65 309.585C1330.7 307.787 1335.42 306.888 1340.81 306.888C1346.2 306.888 1350.88 307.787 1354.83 309.585C1358.88 311.383 1362.25 313.811 1364.95 316.867C1367.65 319.834 1369.62 323.16 1370.88 326.846C1372.23 330.532 1372.9 334.263 1372.9 338.039C1372.9 341.545 1372.46 344.736 1371.56 347.613C1370.66 350.49 1369.58 353.007 1368.32 355.165C1367.15 357.322 1366.03 359.165 1364.95 360.693L1337.17 399.935C1336.81 400.384 1336.32 400.968 1335.69 401.688C1335.15 402.317 1334.25 402.632 1332.99 402.632H1330.29ZM1340.81 360.963C1345.04 360.963 1348.95 360.019 1352.54 358.131C1356.14 356.243 1359.02 353.591 1361.17 350.175C1363.33 346.759 1364.41 342.713 1364.41 338.039C1364.41 333.274 1363.33 329.184 1361.17 325.767C1359.02 322.351 1356.14 319.699 1352.54 317.811C1348.95 315.923 1345.04 314.979 1340.81 314.979C1336.59 314.979 1332.67 315.923 1329.08 317.811C1325.57 319.699 1322.74 322.351 1320.58 325.767C1318.43 329.184 1317.35 333.274 1317.35 338.039C1317.35 342.713 1318.43 346.759 1320.58 350.175C1322.74 353.591 1325.57 356.243 1329.08 358.131C1332.67 360.019 1336.59 360.963 1340.81 360.963ZM1418.12 403.98C1411.55 403.98 1405.98 402.766 1401.39 400.339C1396.9 397.912 1393.44 394.81 1391.01 391.035C1388.58 387.169 1387.28 383.168 1387.1 379.033C1387.01 378.224 1387.23 377.595 1387.77 377.145C1388.31 376.696 1388.99 376.471 1389.8 376.471H1392.36C1393.08 376.471 1393.71 376.651 1394.25 377.01C1394.88 377.37 1395.37 378.224 1395.73 379.572C1396.72 383.438 1398.34 386.584 1400.58 389.012C1402.92 391.439 1405.62 393.192 1408.68 394.271C1411.73 395.35 1414.88 395.889 1418.12 395.889C1422.52 395.889 1426.52 394.99 1430.12 393.192C1433.8 391.394 1436.72 388.742 1438.88 385.236C1441.04 381.73 1442.12 377.46 1442.12 372.425C1442.12 367.75 1441.04 363.795 1438.88 360.559C1436.72 357.232 1433.8 354.715 1430.12 353.007C1426.52 351.209 1422.52 350.31 1418.12 350.31C1414.79 350.31 1412.05 350.714 1409.89 351.524C1407.73 352.333 1405.93 353.277 1404.5 354.355C1403.06 355.434 1401.75 356.378 1400.58 357.187C1399.42 357.996 1398.11 358.401 1396.67 358.401H1394.25C1393.44 358.401 1392.72 358.131 1392.09 357.592C1391.46 356.963 1391.19 356.243 1391.28 355.434L1395.33 311.338C1395.42 310.35 1395.69 309.585 1396.13 309.046C1396.67 308.507 1397.39 308.237 1398.29 308.237H1442.25C1443.15 308.237 1443.87 308.507 1444.41 309.046C1444.95 309.585 1445.22 310.305 1445.22 311.204V313.361C1445.22 314.26 1444.95 314.979 1444.41 315.519C1443.87 316.058 1443.15 316.328 1442.25 316.328H1403.55L1400.72 346.804C1401.71 346.175 1403.6 345.276 1406.38 344.107C1409.17 342.848 1413.08 342.219 1418.12 342.219C1422.61 342.219 1426.79 342.893 1430.66 344.242C1434.61 345.5 1438.07 347.433 1441.04 350.04C1444.1 352.557 1446.43 355.704 1448.05 359.48C1449.76 363.166 1450.61 367.481 1450.61 372.425C1450.61 379.437 1449.13 385.281 1446.16 389.956C1443.29 394.631 1439.38 398.137 1434.43 400.474C1429.58 402.811 1424.14 403.98 1418.12 403.98ZM1468.89 402.632C1467.99 402.632 1467.27 402.362 1466.73 401.822C1466.19 401.283 1465.92 400.564 1465.92 399.665V393.192C1465.92 392.293 1466.19 391.574 1466.73 391.035C1467.27 390.405 1467.99 390.091 1468.89 390.091H1475.36C1476.26 390.091 1476.98 390.405 1477.52 391.035C1478.15 391.574 1478.46 392.293 1478.46 393.192V399.665C1478.46 400.564 1478.15 401.283 1477.52 401.822C1476.98 402.362 1476.26 402.632 1475.36 402.632H1468.89ZM1525.97 403.98C1519.41 403.98 1513.83 402.766 1509.25 400.339C1504.75 397.912 1501.29 394.81 1498.86 391.035C1496.44 387.169 1495.13 383.168 1494.95 379.033C1494.86 378.224 1495.09 377.595 1495.63 377.145C1496.17 376.696 1496.84 376.471 1497.65 376.471H1500.21C1500.93 376.471 1501.56 376.651 1502.1 377.01C1502.73 377.37 1503.22 378.224 1503.58 379.572C1504.57 383.438 1506.19 386.584 1508.44 389.012C1510.78 391.439 1513.47 393.192 1516.53 394.271C1519.59 395.35 1522.73 395.889 1525.97 395.889C1530.37 395.889 1534.37 394.99 1537.97 393.192C1541.66 391.394 1544.58 388.742 1546.74 385.236C1548.89 381.73 1549.97 377.46 1549.97 372.425C1549.97 367.75 1548.89 363.795 1546.74 360.559C1544.58 357.232 1541.66 354.715 1537.97 353.007C1534.37 351.209 1530.37 350.31 1525.97 350.31C1522.64 350.31 1519.9 350.714 1517.74 351.524C1515.59 352.333 1513.79 353.277 1512.35 354.355C1510.91 355.434 1509.61 356.378 1508.44 357.187C1507.27 357.996 1505.97 358.401 1504.53 358.401H1502.1C1501.29 358.401 1500.57 358.131 1499.94 357.592C1499.31 356.963 1499.04 356.243 1499.13 355.434L1503.18 311.338C1503.27 310.35 1503.54 309.585 1503.99 309.046C1504.53 308.507 1505.25 308.237 1506.15 308.237H1550.11C1551.01 308.237 1551.72 308.507 1552.26 309.046C1552.8 309.585 1553.07 310.305 1553.07 311.204V313.361C1553.07 314.26 1552.8 314.979 1552.26 315.519C1551.72 316.058 1551.01 316.328 1550.11 316.328H1511.4L1508.57 346.804C1509.56 346.175 1511.45 345.276 1514.24 344.107C1517.02 342.848 1520.93 342.219 1525.97 342.219C1530.46 342.219 1534.64 342.893 1538.51 344.242C1542.47 345.5 1545.93 347.433 1548.89 350.04C1551.95 352.557 1554.29 355.704 1555.91 359.48C1557.61 363.166 1558.47 367.481 1558.47 372.425C1558.47 379.437 1556.98 385.281 1554.02 389.956C1551.14 394.631 1547.23 398.137 1542.29 400.474C1537.43 402.811 1531.99 403.98 1525.97 403.98Z" fill="black"/>
<path d="M1368.1 288C1367.73 288 1367.42 287.889 1367.16 287.667C1366.94 287.408 1366.83 287.093 1366.83 286.723V284.946C1366.83 284.613 1366.92 284.243 1367.1 283.836C1367.29 283.428 1367.66 282.984 1368.21 282.503L1379.99 270.731C1381.87 269.14 1383.35 267.788 1384.43 266.678C1385.54 265.53 1386.32 264.438 1386.76 263.402C1387.24 262.365 1387.48 261.292 1387.48 260.181C1387.48 258.071 1386.89 256.406 1385.7 255.184C1384.52 253.925 1382.76 253.296 1380.43 253.296C1378.95 253.296 1377.67 253.611 1376.6 254.24C1375.53 254.832 1374.67 255.665 1374.04 256.739C1373.45 257.775 1373.06 258.96 1372.88 260.292C1372.8 260.774 1372.6 261.107 1372.27 261.292C1371.97 261.477 1371.69 261.569 1371.43 261.569H1368.55C1368.21 261.569 1367.94 261.477 1367.71 261.292C1367.49 261.07 1367.38 260.811 1367.38 260.514C1367.42 259.108 1367.71 257.701 1368.27 256.294C1368.82 254.851 1369.64 253.555 1370.71 252.408C1371.82 251.26 1373.17 250.335 1374.77 249.631C1376.4 248.891 1378.28 248.521 1380.43 248.521C1383.35 248.521 1385.74 249.058 1387.59 250.131C1389.48 251.168 1390.87 252.556 1391.76 254.296C1392.65 256.035 1393.09 257.942 1393.09 260.015C1393.09 261.644 1392.81 263.143 1392.26 264.512C1391.7 265.845 1390.89 267.159 1389.81 268.455C1388.78 269.713 1387.48 271.009 1385.93 272.342L1375.27 283.169H1392.59C1393 283.169 1393.31 283.28 1393.53 283.502C1393.79 283.724 1393.92 284.039 1393.92 284.446V286.723C1393.92 287.093 1393.79 287.408 1393.53 287.667C1393.31 287.889 1393 288 1392.59 288H1368.1ZM1412.02 288C1411.65 288 1411.33 287.889 1411.08 287.667C1410.85 287.408 1410.74 287.093 1410.74 286.723V255.628L1401.53 262.736C1401.23 262.958 1400.91 263.05 1400.58 263.013C1400.25 262.976 1399.97 262.81 1399.75 262.513L1398.3 260.681C1398.08 260.348 1397.99 260.015 1398.03 259.682C1398.1 259.348 1398.29 259.071 1398.58 258.849L1410.69 249.52C1410.95 249.335 1411.19 249.224 1411.41 249.187C1411.63 249.15 1411.87 249.132 1412.13 249.132H1414.96C1415.33 249.132 1415.63 249.261 1415.85 249.52C1416.07 249.742 1416.18 250.039 1416.18 250.409V286.723C1416.18 287.093 1416.07 287.408 1415.85 287.667C1415.63 287.889 1415.33 288 1414.96 288H1412.02ZM1436.66 288.555C1433.73 288.555 1431.25 288.056 1429.22 287.056C1427.22 286.02 1425.68 284.687 1424.61 283.058C1423.57 281.429 1423.02 279.708 1422.94 277.894C1422.91 277.561 1423 277.302 1423.22 277.117C1423.44 276.932 1423.72 276.839 1424.05 276.839H1427.05C1427.39 276.839 1427.68 276.913 1427.94 277.061C1428.2 277.209 1428.4 277.524 1428.55 278.005C1428.92 279.375 1429.51 280.504 1430.33 281.392C1431.18 282.244 1432.14 282.873 1433.22 283.28C1434.33 283.65 1435.47 283.836 1436.66 283.836C1438.25 283.836 1439.69 283.521 1440.99 282.892C1442.32 282.225 1443.38 281.263 1444.15 280.004C1444.93 278.709 1445.32 277.154 1445.32 275.34C1445.32 273.674 1444.93 272.249 1444.15 271.064C1443.41 269.843 1442.38 268.917 1441.05 268.288C1439.75 267.622 1438.29 267.289 1436.66 267.289C1435.44 267.289 1434.44 267.437 1433.66 267.733C1432.88 268.029 1432.22 268.381 1431.66 268.788C1431.14 269.195 1430.66 269.547 1430.22 269.843C1429.81 270.139 1429.35 270.287 1428.83 270.287H1425.94C1425.61 270.287 1425.31 270.176 1425.05 269.954C1424.79 269.695 1424.68 269.399 1424.72 269.066L1426.5 250.52C1426.53 250.076 1426.66 249.742 1426.89 249.52C1427.15 249.261 1427.48 249.132 1427.89 249.132H1447.26C1447.63 249.132 1447.93 249.261 1448.15 249.52C1448.41 249.742 1448.54 250.039 1448.54 250.409V252.574C1448.54 252.981 1448.41 253.296 1448.15 253.518C1447.93 253.74 1447.63 253.851 1447.26 253.851H1431.27L1430.22 264.79C1430.74 264.457 1431.57 264.068 1432.72 263.624C1433.86 263.143 1435.44 262.902 1437.44 262.902C1439.25 262.902 1440.95 263.18 1442.54 263.735C1444.17 264.29 1445.62 265.105 1446.88 266.178C1448.13 267.252 1449.12 268.566 1449.82 270.121C1450.52 271.638 1450.87 273.397 1450.87 275.396C1450.87 278.209 1450.24 280.596 1448.99 282.558C1447.76 284.52 1446.08 286.02 1443.93 287.056C1441.82 288.056 1439.4 288.555 1436.66 288.555ZM1457.92 288C1457.55 288 1457.24 287.889 1456.98 287.667C1456.76 287.408 1456.65 287.093 1456.65 286.723V282.725C1456.65 282.355 1456.76 282.059 1456.98 281.837C1457.24 281.577 1457.55 281.448 1457.92 281.448H1461.92C1462.29 281.448 1462.59 281.577 1462.81 281.837C1463.07 282.059 1463.2 282.355 1463.2 282.725V286.723C1463.2 287.093 1463.07 287.408 1462.81 287.667C1462.59 287.889 1462.29 288 1461.92 288H1457.92ZM1475.14 288C1474.8 288 1474.53 287.889 1474.31 287.667C1474.12 287.408 1474.03 287.112 1474.03 286.778C1474.03 286.593 1474.05 286.445 1474.08 286.334C1474.16 286.223 1474.21 286.131 1474.25 286.057L1482.75 274.229C1481.82 274.452 1480.82 274.563 1479.75 274.563C1477.67 274.526 1475.82 274.155 1474.19 273.452C1472.57 272.749 1471.18 271.805 1470.03 270.62C1468.88 269.399 1468.01 268.029 1467.42 266.511C1466.83 264.994 1466.53 263.402 1466.53 261.736C1466.53 260.107 1466.81 258.516 1467.36 256.961C1467.96 255.406 1468.83 253.999 1469.97 252.741C1471.16 251.482 1472.62 250.483 1474.36 249.742C1476.1 248.965 1478.15 248.576 1480.52 248.576C1482.86 248.576 1484.89 248.946 1486.63 249.687C1488.41 250.39 1489.89 251.371 1491.07 252.63C1492.3 253.851 1493.18 255.239 1493.74 256.794C1494.33 258.349 1494.63 259.959 1494.63 261.625C1494.63 263.143 1494.41 264.531 1493.96 265.789C1493.52 267.048 1492.98 268.177 1492.35 269.177C1491.76 270.176 1491.17 271.101 1490.57 271.953L1479.91 286.889C1479.77 287.075 1479.56 287.315 1479.3 287.611C1479.04 287.87 1478.65 288 1478.14 288H1475.14ZM1480.52 270.065C1482.08 270.065 1483.5 269.732 1484.8 269.066C1486.13 268.362 1487.19 267.4 1487.96 266.178C1488.74 264.92 1489.13 263.42 1489.13 261.681C1489.13 259.941 1488.74 258.46 1487.96 257.238C1487.19 255.98 1486.13 255.017 1484.8 254.351C1483.5 253.648 1482.08 253.296 1480.52 253.296C1479.01 253.296 1477.6 253.648 1476.3 254.351C1475.01 255.017 1473.97 255.98 1473.19 257.238C1472.42 258.46 1472.03 259.941 1472.03 261.681C1472.03 263.42 1472.42 264.92 1473.19 266.178C1473.97 267.4 1475.01 268.362 1476.3 269.066C1477.6 269.732 1479.01 270.065 1480.52 270.065ZM1500.11 288C1499.82 288 1499.54 287.889 1499.28 287.667C1499.06 287.445 1498.95 287.167 1498.95 286.834C1498.95 286.723 1498.96 286.593 1499 286.445C1499.08 286.26 1499.19 286.057 1499.33 285.834L1509 273.23L1499.95 261.292C1499.8 261.07 1499.69 260.885 1499.61 260.737C1499.58 260.589 1499.56 260.44 1499.56 260.292C1499.56 259.959 1499.67 259.682 1499.89 259.459C1500.11 259.237 1500.39 259.126 1500.72 259.126H1503.55C1503.96 259.126 1504.26 259.237 1504.44 259.459C1504.67 259.645 1504.85 259.83 1505 260.015L1512.38 269.621L1519.77 260.07C1519.92 259.885 1520.08 259.682 1520.27 259.459C1520.49 259.237 1520.8 259.126 1521.21 259.126H1523.93C1524.27 259.126 1524.54 259.237 1524.77 259.459C1524.99 259.682 1525.1 259.959 1525.1 260.292C1525.1 260.44 1525.06 260.589 1524.99 260.737C1524.95 260.885 1524.86 261.07 1524.71 261.292L1515.55 273.341L1525.21 285.834C1525.36 286.057 1525.45 286.242 1525.49 286.39C1525.56 286.538 1525.6 286.686 1525.6 286.834C1525.6 287.167 1525.49 287.445 1525.27 287.667C1525.04 287.889 1524.77 288 1524.43 288H1521.49C1521.12 288 1520.82 287.907 1520.6 287.722C1520.38 287.537 1520.19 287.352 1520.05 287.167L1512.22 277.006L1504.39 287.167C1504.24 287.315 1504.05 287.5 1503.83 287.722C1503.65 287.907 1503.35 288 1502.94 288H1500.11ZM1544.37 288.555C1541.3 288.555 1538.69 287.944 1536.54 286.723C1534.39 285.464 1532.75 283.836 1531.6 281.837C1530.49 279.801 1529.93 277.598 1529.93 275.229C1529.93 274.118 1530.06 273.063 1530.32 272.064C1530.62 271.027 1530.97 270.065 1531.38 269.177C1531.82 268.251 1532.25 267.437 1532.65 266.733C1533.1 265.993 1533.49 265.401 1533.82 264.957L1544.37 250.242C1544.56 250.057 1544.78 249.835 1545.04 249.576C1545.3 249.28 1545.68 249.132 1546.2 249.132H1549.15C1549.48 249.132 1549.74 249.261 1549.92 249.52C1550.14 249.742 1550.26 250.02 1550.26 250.353C1550.26 250.501 1550.24 250.649 1550.2 250.797C1550.16 250.908 1550.11 251.001 1550.03 251.075L1541.93 262.402C1542.37 262.254 1542.87 262.162 1543.43 262.125C1544.02 262.051 1544.57 262.014 1545.09 262.014C1547.13 262.051 1548.98 262.421 1550.64 263.124C1552.31 263.828 1553.74 264.79 1554.92 266.012C1556.14 267.196 1557.07 268.584 1557.7 270.176C1558.33 271.731 1558.64 273.397 1558.64 275.173C1558.64 277.506 1558.09 279.69 1556.97 281.726C1555.86 283.761 1554.24 285.409 1552.09 286.667C1549.98 287.926 1547.41 288.555 1544.37 288.555ZM1544.31 283.836C1545.87 283.836 1547.31 283.502 1548.65 282.836C1549.98 282.17 1551.05 281.207 1551.87 279.949C1552.72 278.653 1553.14 277.08 1553.14 275.229C1553.14 273.341 1552.74 271.768 1551.92 270.509C1551.11 269.214 1550.02 268.251 1548.65 267.622C1547.31 266.956 1545.87 266.622 1544.31 266.622C1542.76 266.622 1541.32 266.956 1539.98 267.622C1538.65 268.251 1537.56 269.214 1536.71 270.509C1535.89 271.768 1535.49 273.341 1535.49 275.229C1535.49 277.08 1535.89 278.653 1536.71 279.949C1537.56 281.207 1538.65 282.17 1539.98 282.836C1541.32 283.502 1542.76 283.836 1544.31 283.836Z" fill="#4E505F"/>
<rect x="807" y="64" width="114" height="52.25" rx="26.125" fill="#F8F8FD" fill-opacity="0.49"/>
<rect x="807.5" y="64.5" width="113" height="51.25" rx="25.625" stroke="#B4ABAB" stroke-opacity="0.4"/>
<circle cx="892.5" cy="89.3333" r="15.8333" fill="#4E505F"/>
<path d="M849.75 88.0651H848.198C847.323 88.0651 846.615 88.6335 846.615 89.3333C846.615 90.0316 847.323 90.5984 848.198 90.5984H849.75C850.624 90.5984 851.333 90.0332 851.333 89.3333C851.333 88.6351 850.622 88.0651 849.75 88.0651ZM835.5 80.625C834.355 80.6214 833.221 80.8443 832.163 81.2806C831.105 81.717 830.144 82.3583 829.334 83.1677C828.525 83.977 827.884 84.9384 827.447 85.9966C827.011 87.0547 826.788 88.1887 826.792 89.3333C826.792 94.1641 830.669 98.0417 835.5 98.0417C840.329 98.0417 844.208 94.1641 844.208 89.3333C844.208 84.5026 840.328 80.625 835.5 80.625ZM835.5 95.6667C831.999 95.6667 829.167 92.8309 829.167 89.3333C829.167 85.8326 831.999 83 835.5 83C837.18 83 838.791 83.6673 839.978 84.855C841.166 86.0427 841.833 87.6536 841.833 89.3333C841.833 91.013 841.166 92.6239 839.978 93.8117C838.791 94.9994 837.18 95.6667 835.5 95.6667ZM824.417 89.3333C824.417 88.6351 823.706 88.0651 822.833 88.0651H821.25C820.374 88.0651 819.667 88.6335 819.667 89.3333C819.667 90.0316 820.374 90.5984 821.25 90.5984H822.833C823.706 90.5984 824.417 90.0316 824.417 89.3333ZM835.5 78.25C836.198 78.25 836.765 77.5422 836.765 76.6667V75.0833C836.765 74.2078 836.198 73.5 835.5 73.5C834.8 73.5 834.232 74.2078 834.232 75.0833V76.6667C834.232 77.5422 834.8 78.25 835.5 78.25ZM835.5 100.417C834.8 100.417 834.232 101.124 834.232 102V103.583C834.232 104.459 834.8 105.167 835.5 105.167C836.198 105.167 836.765 104.459 836.765 103.583V102C836.765 101.124 836.198 100.417 835.5 100.417ZM847.161 79.4628C847.78 78.8437 847.88 77.9412 847.386 77.4472C846.892 76.9532 845.988 77.0546 845.372 77.6737L844.264 78.7804C843.645 79.3995 843.545 80.302 844.039 80.796C844.533 81.29 845.437 81.1887 846.054 80.5696L847.161 79.4628ZM824.945 98.0939L823.837 99.2038C823.218 99.8229 823.118 100.722 823.612 101.216C824.106 101.71 825.01 101.612 825.626 100.993L826.735 99.8863C827.354 99.2672 827.453 98.3647 826.959 97.8691C826.465 97.3735 825.561 97.478 824.945 98.0939ZM825.628 77.6721C825.01 77.053 824.106 76.9517 823.612 77.4457C823.118 77.9397 823.22 78.8437 823.836 79.4628L824.944 80.5696C825.563 81.1887 826.464 81.29 826.958 80.796C827.452 80.302 827.352 79.3979 826.735 78.7804L825.628 77.6721ZM844.262 99.8878L845.37 100.995C845.99 101.614 846.89 101.712 847.384 101.221C847.878 100.727 847.779 99.8229 847.16 99.2054L846.053 98.0987C845.434 97.4796 844.531 97.3782 844.036 97.8722C843.54 98.3662 843.643 99.2687 844.262 99.8878Z" fill="#4B5EFC"/>
<rect x="174" y="939" width="312" height="90" rx="22" fill="#D2D3DA"/>
<path d="M327.69 998C327.417 998 327.184 997.918 326.993 997.754C326.829 997.563 326.747 997.33 326.747 997.057V994.105C326.747 993.832 326.829 993.613 326.993 993.449C327.184 993.258 327.417 993.162 327.69 993.162H330.642C330.915 993.162 331.134 993.258 331.298 993.449C331.489 993.613 331.585 993.832 331.585 994.105V997.057C331.585 997.33 331.489 997.563 331.298 997.754C331.134 997.918 330.915 998 330.642 998H327.69Z" fill="black"/>
<rect x="531" y="939" width="312" height="90" rx="22" fill="#D2D3DA"/>
<path d="M685.997 998.41C684.111 998.41 682.512 998.123 681.2 997.549C679.915 996.948 678.863 996.128 678.043 995.089C677.223 994.05 676.622 992.861 676.239 991.522C675.884 990.183 675.679 988.761 675.624 987.258C675.597 986.52 675.569 985.741 675.542 984.921C675.542 984.101 675.542 983.281 675.542 982.461C675.569 981.614 675.597 980.807 675.624 980.042C675.651 978.539 675.856 977.117 676.239 975.778C676.649 974.411 677.25 973.222 678.043 972.211C678.863 971.172 679.929 970.366 681.241 969.792C682.553 969.191 684.138 968.89 685.997 968.89C687.883 968.89 689.468 969.191 690.753 969.792C692.065 970.366 693.131 971.172 693.951 972.211C694.771 973.222 695.372 974.411 695.755 975.778C696.165 977.117 696.384 978.539 696.411 980.042C696.438 980.807 696.452 981.614 696.452 982.461C696.479 983.281 696.479 984.101 696.452 984.921C696.452 985.741 696.438 986.52 696.411 987.258C696.384 988.761 696.165 990.183 695.755 991.522C695.372 992.861 694.771 994.05 693.951 995.089C693.158 996.128 692.106 996.948 690.794 997.549C689.509 998.123 687.91 998.41 685.997 998.41ZM685.997 994.925C688.129 994.925 689.701 994.228 690.712 992.834C691.751 991.413 692.284 989.486 692.311 987.053C692.366 986.26 692.393 985.495 692.393 984.757C692.393 983.992 692.393 983.24 692.393 982.502C692.393 981.737 692.366 980.985 692.311 980.247C692.284 977.869 691.751 975.969 690.712 974.548C689.701 973.099 688.129 972.375 685.997 972.375C683.892 972.375 682.321 973.099 681.282 974.548C680.271 975.969 679.738 977.869 679.683 980.247C679.683 980.985 679.669 981.737 679.642 982.502C679.642 983.24 679.642 983.992 679.642 984.757C679.669 985.495 679.683 986.26 679.683 987.053C679.738 989.486 680.284 991.413 681.323 992.834C682.362 994.228 683.92 994.925 685.997 994.925Z" fill="black"/>
<rect x="888" y="939" width="312" height="90" rx="22" fill="#D2D3DA"/>
<path d="M1057 994H1040C1039.73 994 1039.48 993.895 1039.29 993.707L1030.29 984.707C1030.11 984.519 1030 984.265 1030 984C1030 983.735 1030.11 983.481 1030.29 983.293L1039.29 974.293C1039.48 974.105 1039.73 974 1040 974H1057C1057.27 974 1057.52 974.105 1057.71 974.293C1057.89 974.48 1058 974.735 1058 975V993C1058 993.265 1057.89 993.52 1057.71 993.707C1057.52 993.895 1057.27 994 1057 994ZM1040.41 992H1056V976H1040.41L1032.41 984L1040.41 992Z" fill="black"/>
<path d="M1048.41 984L1053 979.414L1051.59 978L1047 982.586L1042.41 978L1041 979.414L1045.59 984L1041 988.586L1042.41 990L1047 985.414L1051.59 990L1053 988.586L1048.41 984Z" fill="black"/>
<rect x="1245" y="939" width="312" height="90" rx="22" fill="#4B5EFC"/>
<path d="M1392.85 982.174C1392.58 982.174 1392.36 982.092 1392.2 981.928C1392.03 981.764 1391.95 981.545 1391.95 981.272V979.878C1391.95 979.605 1392.03 979.386 1392.2 979.222C1392.36 979.058 1392.58 978.976 1392.85 978.976H1408.48C1408.75 978.976 1408.97 979.058 1409.13 979.222C1409.32 979.386 1409.42 979.605 1409.42 979.878V981.272C1409.42 981.545 1409.32 981.764 1409.13 981.928C1408.97 982.092 1408.75 982.174 1408.48 982.174H1392.85ZM1392.85 992.424C1392.58 992.424 1392.36 992.342 1392.2 992.178C1392.03 992.014 1391.95 991.795 1391.95 991.522V990.128C1391.95 989.855 1392.03 989.636 1392.2 989.472C1392.36 989.308 1392.58 989.226 1392.85 989.226H1408.48C1408.75 989.226 1408.97 989.308 1409.13 989.472C1409.32 989.636 1409.42 989.855 1409.42 990.128V991.522C1409.42 991.795 1409.32 992.014 1409.13 992.178C1408.97 992.342 1408.75 992.424 1408.48 992.424H1392.85Z" fill="white"/>
<rect x="174" y="821" width="312" height="90" rx="22" fill="#D2D3DA"/>
<path d="M332.316 880C332.043 880 331.81 879.918 331.619 879.754C331.455 879.563 331.373 879.33 331.373 879.057V856.097L324.567 861.345C324.348 861.509 324.116 861.577 323.87 861.55C323.624 861.523 323.419 861.4 323.255 861.181L322.189 859.828C322.025 859.582 321.957 859.336 321.984 859.09C322.039 858.844 322.175 858.639 322.394 858.475L331.332 851.587C331.523 851.45 331.701 851.368 331.865 851.341C332.029 851.314 332.207 851.3 332.398 851.3H334.489C334.762 851.3 334.981 851.396 335.145 851.587C335.309 851.751 335.391 851.97 335.391 852.243V879.057C335.391 879.33 335.309 879.563 335.145 879.754C334.981 879.918 334.762 880 334.489 880H332.316Z" fill="black"/>
<rect x="531" y="821" width="312" height="90" rx="22" fill="#D2D3DA"/>
<path d="M676.952 880C676.679 880 676.446 879.918 676.255 879.754C676.091 879.563 676.009 879.33 676.009 879.057V877.745C676.009 877.499 676.077 877.226 676.214 876.925C676.351 876.624 676.624 876.296 677.034 875.941L685.726 867.249C687.12 866.074 688.213 865.076 689.006 864.256C689.826 863.409 690.4 862.602 690.728 861.837C691.083 861.072 691.261 860.279 691.261 859.459C691.261 857.901 690.824 856.671 689.949 855.769C689.074 854.84 687.776 854.375 686.054 854.375C684.961 854.375 684.018 854.607 683.225 855.072C682.432 855.509 681.804 856.124 681.339 856.917C680.902 857.682 680.615 858.557 680.478 859.541C680.423 859.896 680.273 860.142 680.027 860.279C679.808 860.416 679.603 860.484 679.412 860.484H677.28C677.034 860.484 676.829 860.416 676.665 860.279C676.501 860.115 676.419 859.924 676.419 859.705C676.446 858.666 676.665 857.628 677.075 856.589C677.485 855.523 678.086 854.566 678.879 853.719C679.699 852.872 680.697 852.188 681.872 851.669C683.075 851.122 684.469 850.849 686.054 850.849C688.213 850.849 689.976 851.245 691.343 852.038C692.737 852.803 693.762 853.828 694.418 855.113C695.074 856.398 695.402 857.805 695.402 859.336C695.402 860.539 695.197 861.646 694.787 862.657C694.377 863.641 693.776 864.611 692.983 865.568C692.218 866.497 691.261 867.454 690.113 868.438L682.241 876.433H695.033C695.334 876.433 695.566 876.515 695.73 876.679C695.921 876.843 696.017 877.075 696.017 877.376V879.057C696.017 879.33 695.921 879.563 695.73 879.754C695.566 879.918 695.334 880 695.033 880H676.952Z" fill="black"/>
<rect x="888" y="821" width="312" height="90" rx="22" fill="#D2D3DA"/>
<path d="M1043.22 880.41C1041.5 880.41 1039.99 880.205 1038.71 879.795C1037.42 879.358 1036.34 878.784 1035.47 878.073C1034.59 877.362 1033.92 876.583 1033.46 875.736C1033.02 874.889 1032.79 874.014 1032.76 873.112C1032.76 872.866 1032.85 872.675 1033.01 872.538C1033.17 872.401 1033.38 872.333 1033.62 872.333H1035.63C1035.88 872.333 1036.1 872.388 1036.29 872.497C1036.48 872.606 1036.64 872.839 1036.78 873.194C1037.05 874.178 1037.52 874.943 1038.18 875.49C1038.86 876.037 1039.64 876.419 1040.51 876.638C1041.41 876.829 1042.32 876.925 1043.22 876.925C1045.1 876.925 1046.63 876.474 1047.81 875.572C1048.99 874.67 1049.57 873.344 1049.57 871.595C1049.57 869.818 1049.04 868.547 1047.97 867.782C1046.91 867.017 1045.43 866.634 1043.55 866.634H1039.65C1039.38 866.634 1039.15 866.552 1038.95 866.388C1038.79 866.224 1038.71 865.992 1038.71 865.691V864.584C1038.71 864.338 1038.75 864.133 1038.83 863.969C1038.94 863.778 1039.05 863.614 1039.16 863.477L1047.11 854.785H1035.02C1034.74 854.785 1034.51 854.703 1034.32 854.539C1034.16 854.375 1034.08 854.143 1034.08 853.842V852.284C1034.08 851.983 1034.16 851.751 1034.32 851.587C1034.51 851.396 1034.74 851.3 1035.02 851.3H1051.38C1051.68 851.3 1051.91 851.396 1052.07 851.587C1052.27 851.751 1052.36 851.983 1052.36 852.284V853.76C1052.36 853.951 1052.31 854.129 1052.2 854.293C1052.12 854.43 1052.02 854.566 1051.91 854.703L1044 863.518L1044.65 863.559C1046.46 863.614 1048.03 863.942 1049.37 864.543C1050.73 865.144 1051.79 866.046 1052.53 867.249C1053.29 868.424 1053.67 869.914 1053.67 871.718C1053.67 873.549 1053.22 875.121 1052.32 876.433C1051.42 877.718 1050.17 878.702 1048.59 879.385C1047 880.068 1045.21 880.41 1043.22 880.41Z" fill="black"/>
<rect x="1245" y="821" width="312" height="90" rx="22" fill="#4B5EFC"/>
<path d="M1400.01 878.647C1399.74 878.647 1399.51 878.565 1399.32 878.401C1399.15 878.21 1399.07 877.977 1399.07 877.704V869.176H1390.67C1390.39 869.176 1390.16 869.094 1389.97 868.93C1389.8 868.739 1389.72 868.506 1389.72 868.233V866.921C1389.72 866.648 1389.8 866.429 1389.97 866.265C1390.16 866.074 1390.39 865.978 1390.67 865.978H1399.07V857.696C1399.07 857.423 1399.15 857.204 1399.32 857.04C1399.51 856.849 1399.74 856.753 1400.01 856.753H1401.45C1401.72 856.753 1401.94 856.849 1402.1 857.04C1402.3 857.204 1402.39 857.423 1402.39 857.696V865.978H1410.84C1411.11 865.978 1411.33 866.074 1411.49 866.265C1411.68 866.429 1411.78 866.648 1411.78 866.921V868.233C1411.78 868.506 1411.68 868.739 1411.49 868.93C1411.33 869.094 1411.11 869.176 1410.84 869.176H1402.39V877.704C1402.39 877.977 1402.3 878.21 1402.1 878.401C1401.94 878.565 1401.72 878.647 1401.45 878.647H1400.01Z" fill="white"/>
<rect x="174" y="703" width="312" height="91" rx="22" fill="#D2D3DA"/>
<path d="M333.441 762.056C333.168 762.056 332.935 761.974 332.744 761.81C332.58 761.618 332.498 761.386 332.498 761.113V755.209H319.214C318.941 755.209 318.708 755.127 318.517 754.963C318.353 754.771 318.271 754.539 318.271 754.266V752.626C318.271 752.516 318.298 752.352 318.353 752.134C318.435 751.888 318.558 751.642 318.722 751.396L331.022 734.053C331.35 733.588 331.856 733.356 332.539 733.356H335.491C335.764 733.356 335.983 733.451 336.147 733.643C336.338 733.807 336.434 734.025 336.434 734.299V751.642H340.124C340.425 751.642 340.657 751.737 340.821 751.929C341.012 752.093 341.108 752.311 341.108 752.585V754.266C341.108 754.539 341.012 754.771 340.821 754.963C340.657 755.127 340.438 755.209 340.165 755.209H336.434V761.113C336.434 761.386 336.338 761.618 336.147 761.81C335.983 761.974 335.764 762.056 335.491 762.056H333.441ZM322.658 751.724H332.539V737.661L322.658 751.724Z" fill="black"/>
<rect x="531" y="703" width="312" height="91" rx="22" fill="#D2D3DA"/>
<path d="M685.972 762.466C683.813 762.466 681.981 762.097 680.478 761.359C679.002 760.593 677.868 759.609 677.075 758.407C676.31 757.204 675.9 755.933 675.845 754.594C675.818 754.348 675.886 754.156 676.05 754.02C676.214 753.883 676.419 753.815 676.665 753.815H678.879C679.125 753.815 679.344 753.869 679.535 753.979C679.726 754.088 679.877 754.32 679.986 754.676C680.259 755.687 680.697 756.521 681.298 757.177C681.927 757.805 682.637 758.27 683.43 758.571C684.25 758.844 685.097 758.981 685.972 758.981C687.147 758.981 688.213 758.748 689.17 758.284C690.154 757.792 690.933 757.081 691.507 756.152C692.081 755.195 692.368 754.047 692.368 752.708C692.368 751.478 692.081 750.425 691.507 749.551C690.96 748.649 690.195 747.965 689.211 747.501C688.254 747.009 687.175 746.763 685.972 746.763C685.07 746.763 684.332 746.872 683.758 747.091C683.184 747.309 682.692 747.569 682.282 747.87C681.899 748.17 681.544 748.43 681.216 748.649C680.915 748.867 680.574 748.977 680.191 748.977H678.059C677.813 748.977 677.594 748.895 677.403 748.731C677.212 748.539 677.13 748.321 677.157 748.075L678.469 734.381C678.496 734.053 678.592 733.807 678.756 733.643C678.947 733.451 679.193 733.356 679.494 733.356H693.803C694.076 733.356 694.295 733.451 694.459 733.643C694.65 733.807 694.746 734.025 694.746 734.299V735.898C694.746 736.198 694.65 736.431 694.459 736.595C694.295 736.759 694.076 736.841 693.803 736.841H681.995L681.216 744.918C681.599 744.672 682.214 744.385 683.061 744.057C683.908 743.701 685.07 743.524 686.546 743.524C687.885 743.524 689.143 743.729 690.318 744.139C691.521 744.549 692.587 745.15 693.516 745.943C694.445 746.735 695.17 747.706 695.689 748.854C696.208 749.974 696.468 751.273 696.468 752.749C696.468 754.826 696.003 756.589 695.074 758.038C694.172 759.486 692.928 760.593 691.343 761.359C689.785 762.097 687.995 762.466 685.972 762.466Z" fill="black"/>
<rect x="888" y="703" width="312" height="91" rx="22" fill="#D2D3DA"/>
<path d="M1043.63 762.466C1041.36 762.466 1039.43 762.015 1037.85 761.113C1036.26 760.183 1035.05 758.981 1034.2 757.505C1033.38 756.001 1032.97 754.375 1032.97 752.626C1032.97 751.806 1033.06 751.027 1033.26 750.289C1033.47 749.523 1033.73 748.813 1034.03 748.157C1034.36 747.473 1034.68 746.872 1034.98 746.353C1035.31 745.806 1035.59 745.369 1035.84 745.041L1043.63 734.176C1043.76 734.039 1043.93 733.875 1044.12 733.684C1044.31 733.465 1044.6 733.356 1044.98 733.356H1047.15C1047.4 733.356 1047.59 733.451 1047.73 733.643C1047.89 733.807 1047.97 734.012 1047.97 734.258C1047.97 734.367 1047.96 734.476 1047.93 734.586C1047.91 734.668 1047.86 734.736 1047.81 734.791L1041.82 743.155C1042.15 743.045 1042.52 742.977 1042.93 742.95C1043.37 742.895 1043.78 742.868 1044.16 742.868C1045.66 742.895 1047.03 743.168 1048.26 743.688C1049.49 744.207 1050.54 744.918 1051.42 745.82C1052.32 746.694 1053 747.719 1053.47 748.895C1053.93 750.043 1054.16 751.273 1054.16 752.585C1054.16 754.307 1053.76 755.919 1052.94 757.423C1052.12 758.926 1050.91 760.142 1049.33 761.072C1047.77 762.001 1045.87 762.466 1043.63 762.466ZM1043.59 758.981C1044.74 758.981 1045.8 758.735 1046.79 758.243C1047.77 757.751 1048.56 757.04 1049.16 756.111C1049.79 755.154 1050.11 753.992 1050.11 752.626C1050.11 751.232 1049.81 750.07 1049.2 749.141C1048.6 748.184 1047.8 747.473 1046.79 747.009C1045.8 746.517 1044.74 746.271 1043.59 746.271C1042.44 746.271 1041.37 746.517 1040.39 747.009C1039.41 747.473 1038.6 748.184 1037.97 749.141C1037.37 750.07 1037.07 751.232 1037.07 752.626C1037.07 753.992 1037.37 755.154 1037.97 756.111C1038.6 757.04 1039.41 757.751 1040.39 758.243C1041.37 758.735 1042.44 758.981 1043.59 758.981Z" fill="black"/>
<rect x="1245" y="703" width="312" height="91" rx="22" fill="#4B5EFC"/>
<path d="M1394.77 751.478C1394.5 751.478 1394.27 751.396 1394.08 751.232C1393.91 751.04 1393.83 750.808 1393.83 750.535V748.977C1393.83 748.703 1393.91 748.485 1394.08 748.321C1394.27 748.129 1394.5 748.034 1394.77 748.034H1407.07C1407.35 748.034 1407.56 748.129 1407.73 748.321C1407.92 748.485 1408.02 748.703 1408.02 748.977V750.535C1408.02 750.808 1407.92 751.04 1407.73 751.232C1407.56 751.396 1407.35 751.478 1407.07 751.478H1394.77Z" fill="white"/>
<rect x="174" y="586" width="312" height="90" rx="22" fill="#D2D3DA"/>
<path d="M325.109 645C324.863 645 324.658 644.918 324.494 644.754C324.357 644.563 324.289 644.344 324.289 644.098C324.289 644.016 324.316 643.893 324.371 643.729L334.58 619.867H321.132C320.859 619.867 320.626 619.785 320.435 619.621C320.271 619.43 320.189 619.197 320.189 618.924V617.284C320.189 616.983 320.271 616.751 320.435 616.587C320.626 616.396 320.859 616.3 321.132 616.3H337.942C338.243 616.3 338.475 616.396 338.639 616.587C338.83 616.751 338.926 616.983 338.926 617.284V618.801C338.926 619.156 338.899 619.443 338.844 619.662C338.789 619.881 338.707 620.127 338.598 620.4L328.471 643.975C328.389 644.194 328.252 644.426 328.061 644.672C327.897 644.891 327.651 645 327.323 645H325.109Z" fill="black"/>
<rect x="531" y="586" width="312" height="90" rx="22" fill="#D2D3DA"/>
<path d="M686.038 645.41C684.453 645.41 682.99 645.219 681.651 644.836C680.339 644.426 679.205 643.852 678.248 643.114C677.319 642.349 676.594 641.433 676.075 640.367C675.556 639.301 675.296 638.098 675.296 636.759C675.296 635.092 675.692 633.657 676.485 632.454C677.305 631.251 678.385 630.336 679.724 629.707C678.658 629.078 677.824 628.258 677.223 627.247C676.622 626.236 676.321 625.033 676.321 623.639C676.321 621.999 676.717 620.619 677.51 619.498C678.33 618.35 679.464 617.462 680.913 616.833C682.389 616.204 684.097 615.89 686.038 615.89C687.951 615.89 689.632 616.204 691.081 616.833C692.557 617.434 693.691 618.309 694.484 619.457C695.304 620.605 695.714 621.985 695.714 623.598C695.714 624.992 695.413 626.208 694.812 627.247C694.211 628.258 693.391 629.078 692.352 629.707C693.691 630.336 694.757 631.251 695.55 632.454C696.37 633.657 696.78 635.092 696.78 636.759C696.78 638.536 696.329 640.08 695.427 641.392C694.525 642.677 693.268 643.674 691.655 644.385C690.042 645.068 688.17 645.41 686.038 645.41ZM686.038 642.13C687.295 642.13 688.43 641.911 689.441 641.474C690.452 641.037 691.259 640.422 691.86 639.629C692.461 638.809 692.762 637.852 692.762 636.759C692.762 635.638 692.461 634.695 691.86 633.93C691.259 633.137 690.452 632.536 689.441 632.126C688.43 631.689 687.295 631.47 686.038 631.47C684.781 631.47 683.633 631.689 682.594 632.126C681.583 632.536 680.776 633.137 680.175 633.93C679.574 634.695 679.273 635.638 679.273 636.759C679.273 637.852 679.574 638.809 680.175 639.629C680.776 640.422 681.583 641.037 682.594 641.474C683.633 641.911 684.781 642.13 686.038 642.13ZM686.038 628.231C687.077 628.231 688.033 628.04 688.908 627.657C689.81 627.274 690.521 626.755 691.04 626.099C691.587 625.443 691.86 624.65 691.86 623.721C691.86 622.792 691.6 621.985 691.081 621.302C690.589 620.619 689.892 620.099 688.99 619.744C688.115 619.361 687.131 619.17 686.038 619.17C684.945 619.17 683.947 619.361 683.045 619.744C682.17 620.099 681.473 620.619 680.954 621.302C680.435 621.985 680.175 622.792 680.175 623.721C680.175 624.678 680.435 625.498 680.954 626.181C681.473 626.837 682.17 627.343 683.045 627.698C683.947 628.053 684.945 628.231 686.038 628.231Z" fill="black"/>
<rect x="888" y="586" width="312" height="90" rx="22" fill="#D2D3DA"/>
<path d="M1038.91 645C1038.67 645 1038.46 644.918 1038.3 644.754C1038.16 644.563 1038.09 644.344 1038.09 644.098C1038.09 643.961 1038.11 643.852 1038.13 643.77C1038.19 643.688 1038.23 643.62 1038.26 643.565L1044.53 634.832C1043.85 634.996 1043.11 635.078 1042.32 635.078C1040.79 635.051 1039.42 634.777 1038.22 634.258C1037.01 633.739 1035.99 633.042 1035.14 632.167C1034.29 631.265 1033.65 630.254 1033.21 629.133C1032.78 628.012 1032.56 626.837 1032.56 625.607C1032.56 624.404 1032.76 623.229 1033.17 622.081C1033.61 620.933 1034.25 619.894 1035.1 618.965C1035.97 618.036 1037.05 617.298 1038.34 616.751C1039.62 616.177 1041.14 615.89 1042.89 615.89C1044.61 615.89 1046.12 616.163 1047.4 616.71C1048.71 617.229 1049.81 617.954 1050.68 618.883C1051.58 619.785 1052.24 620.81 1052.65 621.958C1053.09 623.106 1053.3 624.295 1053.3 625.525C1053.3 626.646 1053.14 627.671 1052.81 628.6C1052.48 629.529 1052.09 630.363 1051.62 631.101C1051.19 631.839 1050.75 632.522 1050.31 633.151L1042.44 644.18C1042.33 644.317 1042.18 644.494 1041.99 644.713C1041.8 644.904 1041.51 645 1041.13 645H1038.91ZM1042.89 631.757C1044.04 631.757 1045.09 631.511 1046.05 631.019C1047.03 630.5 1047.81 629.789 1048.38 628.887C1048.96 627.958 1049.25 626.851 1049.25 625.566C1049.25 624.281 1048.96 623.188 1048.38 622.286C1047.81 621.357 1047.03 620.646 1046.05 620.154C1045.09 619.635 1044.04 619.375 1042.89 619.375C1041.77 619.375 1040.73 619.635 1039.77 620.154C1038.82 620.646 1038.05 621.357 1037.48 622.286C1036.9 623.188 1036.62 624.281 1036.62 625.566C1036.62 626.851 1036.9 627.958 1037.48 628.887C1038.05 629.789 1038.82 630.5 1039.77 631.019C1040.73 631.511 1041.77 631.757 1042.89 631.757Z" fill="black"/>
<rect x="1245" y="586" width="312" height="90" rx="22" fill="#4B5EFC"/>
<path d="M1391.05 645C1390.83 645 1390.63 644.918 1390.44 644.754C1390.27 644.59 1390.19 644.385 1390.19 644.139C1390.19 644.057 1390.2 643.961 1390.23 643.852C1390.28 643.715 1390.37 643.565 1390.48 643.401L1397.61 634.094L1390.93 625.279C1390.82 625.115 1390.74 624.978 1390.68 624.869C1390.65 624.76 1390.64 624.65 1390.64 624.541C1390.64 624.295 1390.72 624.09 1390.89 623.926C1391.05 623.762 1391.26 623.68 1391.5 623.68H1393.59C1393.89 623.68 1394.11 623.762 1394.25 623.926C1394.41 624.063 1394.55 624.199 1394.66 624.336L1400.11 631.429L1405.56 624.377C1405.67 624.24 1405.8 624.09 1405.93 623.926C1406.1 623.762 1406.33 623.68 1406.63 623.68H1408.64C1408.89 623.68 1409.09 623.762 1409.25 623.926C1409.42 624.09 1409.5 624.295 1409.5 624.541C1409.5 624.65 1409.47 624.76 1409.42 624.869C1409.39 624.978 1409.32 625.115 1409.21 625.279L1402.45 634.176L1409.58 643.401C1409.69 643.565 1409.76 643.702 1409.79 643.811C1409.84 643.92 1409.87 644.03 1409.87 644.139C1409.87 644.385 1409.79 644.59 1409.62 644.754C1409.46 644.918 1409.25 645 1409.01 645H1406.84C1406.56 645 1406.34 644.932 1406.18 644.795C1406.02 644.658 1405.88 644.522 1405.77 644.385L1399.99 636.882L1394.21 644.385C1394.1 644.494 1393.96 644.631 1393.8 644.795C1393.66 644.932 1393.44 645 1393.14 645H1391.05Z" fill="white"/>
<rect x="174" y="468" width="312" height="90" rx="22" fill="#4E505F"/>
<path d="M329.521 527.41C326.706 527.41 324.464 526.549 322.797 524.827C321.13 523.078 320.214 520.7 320.05 517.693C320.023 517.338 320.009 516.887 320.009 516.34C320.009 515.766 320.023 515.301 320.05 514.946C320.159 513.005 320.61 511.311 321.403 509.862C322.196 508.386 323.275 507.252 324.642 506.459C326.036 505.666 327.662 505.27 329.521 505.27C331.598 505.27 333.334 505.707 334.728 506.582C336.149 507.457 337.229 508.7 337.967 510.313C338.705 511.926 339.074 513.812 339.074 515.971V516.668C339.074 516.969 338.978 517.201 338.787 517.365C338.623 517.529 338.404 517.611 338.131 517.611H323.945C323.945 517.638 323.945 517.693 323.945 517.775C323.945 517.857 323.945 517.925 323.945 517.98C324 519.101 324.246 520.153 324.683 521.137C325.12 522.094 325.749 522.873 326.569 523.474C327.389 524.075 328.373 524.376 329.521 524.376C330.505 524.376 331.325 524.226 331.981 523.925C332.637 523.624 333.17 523.296 333.58 522.941C333.99 522.558 334.263 522.271 334.4 522.08C334.646 521.725 334.837 521.52 334.974 521.465C335.111 521.383 335.329 521.342 335.63 521.342H337.598C337.871 521.342 338.09 521.424 338.254 521.588C338.445 521.725 338.527 521.93 338.5 522.203C338.473 522.613 338.254 523.119 337.844 523.72C337.434 524.294 336.846 524.868 336.081 525.442C335.316 526.016 334.386 526.494 333.293 526.877C332.2 527.232 330.942 527.41 329.521 527.41ZM323.945 514.782H335.179V514.659C335.179 513.429 334.947 512.336 334.482 511.379C334.045 510.422 333.402 509.671 332.555 509.124C331.708 508.55 330.696 508.263 329.521 508.263C328.346 508.263 327.334 508.55 326.487 509.124C325.667 509.671 325.038 510.422 324.601 511.379C324.164 512.336 323.945 513.429 323.945 514.659V514.782Z" fill="white"/>
<rect x="531" y="468" width="312" height="90" rx="22" fill="#4E505F"/>
<path d="M669.05 527C668.831 527 668.626 526.918 668.435 526.754C668.271 526.59 668.189 526.385 668.189 526.139C668.189 526.057 668.203 525.961 668.23 525.852C668.285 525.715 668.367 525.565 668.476 525.401L675.61 516.094L668.927 507.279C668.818 507.115 668.736 506.978 668.681 506.869C668.654 506.76 668.64 506.65 668.64 506.541C668.64 506.295 668.722 506.09 668.886 505.926C669.05 505.762 669.255 505.68 669.501 505.68H671.592C671.893 505.68 672.111 505.762 672.248 505.926C672.412 506.063 672.549 506.199 672.658 506.336L678.111 513.429L683.564 506.377C683.673 506.24 683.796 506.09 683.933 505.926C684.097 505.762 684.329 505.68 684.63 505.68H686.639C686.885 505.68 687.09 505.762 687.254 505.926C687.418 506.09 687.5 506.295 687.5 506.541C687.5 506.65 687.473 506.76 687.418 506.869C687.391 506.978 687.322 507.115 687.213 507.279L680.448 516.176L687.582 525.401C687.691 525.565 687.76 525.702 687.787 525.811C687.842 525.92 687.869 526.03 687.869 526.139C687.869 526.385 687.787 526.59 687.623 526.754C687.459 526.918 687.254 527 687.008 527H684.835C684.562 527 684.343 526.932 684.179 526.795C684.015 526.658 683.878 526.522 683.769 526.385L677.988 518.882L672.207 526.385C672.098 526.494 671.961 526.631 671.797 526.795C671.66 526.932 671.442 527 671.141 527H669.05ZM691.234 512.65C690.632 512.65 690.332 512.349 690.332 511.748V510.846C690.332 510.627 690.4 510.422 690.537 510.231C690.673 510.012 690.933 509.766 691.316 509.493C692.983 508.263 694.336 507.279 695.375 506.541C696.413 505.803 697.165 505.147 697.63 504.573C698.094 503.999 698.327 503.37 698.327 502.687C698.327 502.086 698.108 501.607 697.671 501.252C697.233 500.869 696.687 500.678 696.031 500.678C695.375 500.678 694.883 500.787 694.555 501.006C694.254 501.197 694.035 501.416 693.899 501.662C693.762 501.908 693.653 502.113 693.571 502.277C693.407 502.578 693.256 502.783 693.12 502.892C692.983 502.974 692.805 503.015 692.587 503.015H691.439C690.892 503.015 690.646 502.755 690.701 502.236C690.755 501.498 691.015 500.828 691.48 500.227C691.972 499.598 692.614 499.093 693.407 498.71C694.199 498.3 695.074 498.095 696.031 498.095C697.643 498.095 698.914 498.546 699.844 499.448C700.8 500.35 701.279 501.416 701.279 502.646C701.279 503.63 701.06 504.491 700.623 505.229C700.185 505.94 699.516 506.664 698.614 507.402C697.712 508.14 696.55 509.001 695.129 509.985H700.951C701.552 509.985 701.853 510.286 701.853 510.887V511.748C701.853 512.349 701.552 512.65 700.951 512.65H691.234Z" fill="white"/>
<rect x="888" y="468" width="312" height="90" rx="22" fill="#4E505F"/>
<path d="M1037.35 526C1037.09 526 1036.91 525.942 1036.79 525.825C1036.67 525.685 1036.58 525.545 1036.51 525.405L1030.95 508.885C1030.9 508.768 1030.88 508.652 1030.88 508.535C1030.88 508.325 1030.95 508.15 1031.09 508.01C1031.23 507.87 1031.4 507.8 1031.61 507.8H1033.01C1033.27 507.8 1033.47 507.87 1033.61 508.01C1033.75 508.15 1033.83 508.278 1033.85 508.395L1038.47 522.185L1045.61 496.74C1045.66 496.553 1045.76 496.367 1045.93 496.18C1046.09 495.993 1046.29 495.9 1046.52 495.9H1052.72C1052.95 495.9 1053.14 495.982 1053.28 496.145C1053.42 496.285 1053.49 496.472 1053.49 496.705V497.79C1053.49 498.023 1053.42 498.222 1053.28 498.385C1053.14 498.525 1052.95 498.595 1052.72 498.595H1048.17L1040.61 525.125C1040.51 525.405 1040.4 525.627 1040.26 525.79C1040.12 525.93 1039.92 526 1039.66 526H1037.35Z" fill="white"/>
<rect x="1245" y="468" width="312" height="90" rx="22" fill="#4B5EFC"/>
<path d="M1392.61 516.299C1392.33 516.299 1392.1 516.217 1391.91 516.053C1391.75 515.889 1391.67 515.67 1391.67 515.397V514.003C1391.67 513.73 1391.75 513.511 1391.91 513.347C1392.1 513.183 1392.33 513.101 1392.61 513.101H1408.19C1408.49 513.101 1408.72 513.183 1408.89 513.347C1409.05 513.511 1409.13 513.73 1409.13 514.003V515.397C1409.13 515.67 1409.05 515.889 1408.89 516.053C1408.72 516.217 1408.49 516.299 1408.19 516.299H1392.61ZM1399.09 524.171C1398.81 524.171 1398.58 524.089 1398.39 523.925C1398.23 523.761 1398.14 523.529 1398.14 523.228V520.768C1398.14 520.495 1398.23 520.262 1398.39 520.071C1398.58 519.88 1398.81 519.784 1399.09 519.784H1401.67C1401.94 519.784 1402.16 519.88 1402.33 520.071C1402.52 520.262 1402.61 520.495 1402.61 520.768V523.228C1402.61 523.529 1402.52 523.761 1402.33 523.925C1402.16 524.089 1401.94 524.171 1401.67 524.171H1399.09ZM1399.09 509.575C1398.81 509.575 1398.58 509.493 1398.39 509.329C1398.23 509.138 1398.14 508.905 1398.14 508.632V506.172C1398.14 505.871 1398.23 505.639 1398.39 505.475C1398.58 505.284 1398.81 505.188 1399.09 505.188H1401.67C1401.94 505.188 1402.16 505.284 1402.33 505.475C1402.52 505.639 1402.61 505.871 1402.61 506.172V508.632C1402.61 508.905 1402.52 509.138 1402.33 509.329C1402.16 509.493 1401.94 509.575 1401.67 509.575H1399.09Z" fill="white"/>
</svg>
