<svg width="1728" height="1117" viewBox="0 0 1728 1117" fill="none" xmlns="http://www.w3.org/2000/svg">
<rect width="1728" height="1117" fill="#17171C"/>
<rect x="173" y="928" width="312" height="90" rx="22" fill="#2E2F38"/>
<path d="M326.69 987C326.417 987 326.184 986.918 325.993 986.754C325.829 986.563 325.747 986.33 325.747 986.057V983.105C325.747 982.832 325.829 982.613 325.993 982.449C326.184 982.258 326.417 982.162 326.69 982.162H329.642C329.915 982.162 330.134 982.258 330.298 982.449C330.489 982.613 330.585 982.832 330.585 983.105V986.057C330.585 986.33 330.489 986.563 330.298 986.754C330.134 986.918 329.915 987 329.642 987H326.69Z" fill="white"/>
<rect x="530" y="928" width="312" height="90" rx="22" fill="#2E2F38"/>
<path d="M684.997 987.41C683.111 987.41 681.512 987.123 680.2 986.549C678.915 985.948 677.863 985.128 677.043 984.089C676.223 983.05 675.622 981.861 675.239 980.522C674.884 979.183 674.679 977.761 674.624 976.258C674.597 975.52 674.569 974.741 674.542 973.921C674.542 973.101 674.542 972.281 674.542 971.461C674.569 970.614 674.597 969.807 674.624 969.042C674.651 967.539 674.856 966.117 675.239 964.778C675.649 963.411 676.25 962.222 677.043 961.211C677.863 960.172 678.929 959.366 680.241 958.792C681.553 958.191 683.138 957.89 684.997 957.89C686.883 957.89 688.468 958.191 689.753 958.792C691.065 959.366 692.131 960.172 692.951 961.211C693.771 962.222 694.372 963.411 694.755 964.778C695.165 966.117 695.384 967.539 695.411 969.042C695.438 969.807 695.452 970.614 695.452 971.461C695.479 972.281 695.479 973.101 695.452 973.921C695.452 974.741 695.438 975.52 695.411 976.258C695.384 977.761 695.165 979.183 694.755 980.522C694.372 981.861 693.771 983.05 692.951 984.089C692.158 985.128 691.106 985.948 689.794 986.549C688.509 987.123 686.91 987.41 684.997 987.41ZM684.997 983.925C687.129 983.925 688.701 983.228 689.712 981.834C690.751 980.413 691.284 978.486 691.311 976.053C691.366 975.26 691.393 974.495 691.393 973.757C691.393 972.992 691.393 972.24 691.393 971.502C691.393 970.737 691.366 969.985 691.311 969.247C691.284 966.869 690.751 964.969 689.712 963.548C688.701 962.099 687.129 961.375 684.997 961.375C682.892 961.375 681.321 962.099 680.282 963.548C679.271 964.969 678.738 966.869 678.683 969.247C678.683 969.985 678.669 970.737 678.642 971.502C678.642 972.24 678.642 972.992 678.642 973.757C678.669 974.495 678.683 975.26 678.683 976.053C678.738 978.486 679.284 980.413 680.323 981.834C681.362 983.228 682.92 983.925 684.997 983.925Z" fill="white"/>
<rect x="887" y="928" width="312" height="90" rx="22" fill="#2E2F38"/>
<path d="M1056 983H1039C1038.73 983 1038.48 982.895 1038.29 982.707L1029.29 973.707C1029.11 973.519 1029 973.265 1029 973C1029 972.735 1029.11 972.481 1029.29 972.293L1038.29 963.293C1038.48 963.105 1038.73 963 1039 963H1056C1056.27 963 1056.52 963.105 1056.71 963.293C1056.89 963.48 1057 963.735 1057 964V982C1057 982.265 1056.89 982.52 1056.71 982.707C1056.52 982.895 1056.27 983 1056 983ZM1039.41 981H1055V965H1039.41L1031.41 973L1039.41 981Z" fill="white"/>
<path d="M1047.41 973L1052 968.414L1050.59 967L1046 971.586L1041.41 967L1040 968.414L1044.59 973L1040 977.586L1041.41 979L1046 974.414L1050.59 979L1052 977.586L1047.41 973Z" fill="white"/>
<rect x="1244" y="928" width="312" height="90" rx="22" fill="#4B5EFC"/>
<path d="M1391.85 971.174C1391.58 971.174 1391.36 971.092 1391.2 970.928C1391.03 970.764 1390.95 970.545 1390.95 970.272V968.878C1390.95 968.605 1391.03 968.386 1391.2 968.222C1391.36 968.058 1391.58 967.976 1391.85 967.976H1407.48C1407.75 967.976 1407.97 968.058 1408.13 968.222C1408.32 968.386 1408.42 968.605 1408.42 968.878V970.272C1408.42 970.545 1408.32 970.764 1408.13 970.928C1407.97 971.092 1407.75 971.174 1407.48 971.174H1391.85ZM1391.85 981.424C1391.58 981.424 1391.36 981.342 1391.2 981.178C1391.03 981.014 1390.95 980.795 1390.95 980.522V979.128C1390.95 978.855 1391.03 978.636 1391.2 978.472C1391.36 978.308 1391.58 978.226 1391.85 978.226H1407.48C1407.75 978.226 1407.97 978.308 1408.13 978.472C1408.32 978.636 1408.42 978.855 1408.42 979.128V980.522C1408.42 980.795 1408.32 981.014 1408.13 981.178C1407.97 981.342 1407.75 981.424 1407.48 981.424H1391.85Z" fill="white"/>
<rect x="173" y="810" width="312" height="90" rx="22" fill="#2E2F38"/>
<path d="M331.316 869C331.043 869 330.81 868.918 330.619 868.754C330.455 868.563 330.373 868.33 330.373 868.057V845.097L323.567 850.345C323.348 850.509 323.116 850.577 322.87 850.55C322.624 850.523 322.419 850.4 322.255 850.181L321.189 848.828C321.025 848.582 320.957 848.336 320.984 848.09C321.039 847.844 321.175 847.639 321.394 847.475L330.332 840.587C330.523 840.45 330.701 840.368 330.865 840.341C331.029 840.314 331.207 840.3 331.398 840.3H333.489C333.762 840.3 333.981 840.396 334.145 840.587C334.309 840.751 334.391 840.97 334.391 841.243V868.057C334.391 868.33 334.309 868.563 334.145 868.754C333.981 868.918 333.762 869 333.489 869H331.316Z" fill="white"/>
<rect x="530" y="810" width="312" height="90" rx="22" fill="#2E2F38"/>
<path d="M675.952 869C675.679 869 675.446 868.918 675.255 868.754C675.091 868.563 675.009 868.33 675.009 868.057V866.745C675.009 866.499 675.077 866.226 675.214 865.925C675.351 865.624 675.624 865.296 676.034 864.941L684.726 856.249C686.12 855.074 687.213 854.076 688.006 853.256C688.826 852.409 689.4 851.602 689.728 850.837C690.083 850.072 690.261 849.279 690.261 848.459C690.261 846.901 689.824 845.671 688.949 844.769C688.074 843.84 686.776 843.375 685.054 843.375C683.961 843.375 683.018 843.607 682.225 844.072C681.432 844.509 680.804 845.124 680.339 845.917C679.902 846.682 679.615 847.557 679.478 848.541C679.423 848.896 679.273 849.142 679.027 849.279C678.808 849.416 678.603 849.484 678.412 849.484H676.28C676.034 849.484 675.829 849.416 675.665 849.279C675.501 849.115 675.419 848.924 675.419 848.705C675.446 847.666 675.665 846.628 676.075 845.589C676.485 844.523 677.086 843.566 677.879 842.719C678.699 841.872 679.697 841.188 680.872 840.669C682.075 840.122 683.469 839.849 685.054 839.849C687.213 839.849 688.976 840.245 690.343 841.038C691.737 841.803 692.762 842.828 693.418 844.113C694.074 845.398 694.402 846.805 694.402 848.336C694.402 849.539 694.197 850.646 693.787 851.657C693.377 852.641 692.776 853.611 691.983 854.568C691.218 855.497 690.261 856.454 689.113 857.438L681.241 865.433H694.033C694.334 865.433 694.566 865.515 694.73 865.679C694.921 865.843 695.017 866.075 695.017 866.376V868.057C695.017 868.33 694.921 868.563 694.73 868.754C694.566 868.918 694.334 869 694.033 869H675.952Z" fill="white"/>
<rect x="887" y="810" width="312" height="90" rx="22" fill="#2E2F38"/>
<path d="M1042.22 869.41C1040.5 869.41 1038.99 869.205 1037.71 868.795C1036.42 868.358 1035.34 867.784 1034.47 867.073C1033.59 866.362 1032.92 865.583 1032.46 864.736C1032.02 863.889 1031.79 863.014 1031.76 862.112C1031.76 861.866 1031.85 861.675 1032.01 861.538C1032.17 861.401 1032.38 861.333 1032.62 861.333H1034.63C1034.88 861.333 1035.1 861.388 1035.29 861.497C1035.48 861.606 1035.64 861.839 1035.78 862.194C1036.05 863.178 1036.52 863.943 1037.18 864.49C1037.86 865.037 1038.64 865.419 1039.51 865.638C1040.41 865.829 1041.32 865.925 1042.22 865.925C1044.1 865.925 1045.63 865.474 1046.81 864.572C1047.99 863.67 1048.57 862.344 1048.57 860.595C1048.57 858.818 1048.04 857.547 1046.97 856.782C1045.91 856.017 1044.43 855.634 1042.55 855.634H1038.65C1038.38 855.634 1038.15 855.552 1037.95 855.388C1037.79 855.224 1037.71 854.992 1037.71 854.691V853.584C1037.71 853.338 1037.75 853.133 1037.83 852.969C1037.94 852.778 1038.05 852.614 1038.16 852.477L1046.11 843.785H1034.02C1033.74 843.785 1033.51 843.703 1033.32 843.539C1033.16 843.375 1033.08 843.143 1033.08 842.842V841.284C1033.08 840.983 1033.16 840.751 1033.32 840.587C1033.51 840.396 1033.74 840.3 1034.02 840.3H1050.38C1050.68 840.3 1050.91 840.396 1051.07 840.587C1051.27 840.751 1051.36 840.983 1051.36 841.284V842.76C1051.36 842.951 1051.31 843.129 1051.2 843.293C1051.12 843.43 1051.02 843.566 1050.91 843.703L1043 852.518L1043.65 852.559C1045.46 852.614 1047.03 852.942 1048.37 853.543C1049.73 854.144 1050.79 855.046 1051.53 856.249C1052.29 857.424 1052.67 858.914 1052.67 860.718C1052.67 862.549 1052.22 864.121 1051.32 865.433C1050.42 866.718 1049.17 867.702 1047.59 868.385C1046 869.068 1044.21 869.41 1042.22 869.41Z" fill="white"/>
<rect x="1244" y="810" width="312" height="90" rx="22" fill="#4B5EFC"/>
<path d="M1399.01 867.647C1398.74 867.647 1398.51 867.565 1398.32 867.401C1398.15 867.21 1398.07 866.977 1398.07 866.704V858.176H1389.67C1389.39 858.176 1389.16 858.094 1388.97 857.93C1388.8 857.739 1388.72 857.506 1388.72 857.233V855.921C1388.72 855.648 1388.8 855.429 1388.97 855.265C1389.16 855.074 1389.39 854.978 1389.67 854.978H1398.07V846.696C1398.07 846.423 1398.15 846.204 1398.32 846.04C1398.51 845.849 1398.74 845.753 1399.01 845.753H1400.45C1400.72 845.753 1400.94 845.849 1401.1 846.04C1401.3 846.204 1401.39 846.423 1401.39 846.696V854.978H1409.84C1410.11 854.978 1410.33 855.074 1410.49 855.265C1410.68 855.429 1410.78 855.648 1410.78 855.921V857.233C1410.78 857.506 1410.68 857.739 1410.49 857.93C1410.33 858.094 1410.11 858.176 1409.84 858.176H1401.39V866.704C1401.39 866.977 1401.3 867.21 1401.1 867.401C1400.94 867.565 1400.72 867.647 1400.45 867.647H1399.01Z" fill="white"/>
<rect x="173" y="692" width="312" height="91" rx="22" fill="#2E2F38"/>
<path d="M332.441 751.056C332.168 751.056 331.935 750.974 331.744 750.81C331.58 750.618 331.498 750.386 331.498 750.113V744.209H318.214C317.941 744.209 317.708 744.127 317.517 743.963C317.353 743.771 317.271 743.539 317.271 743.266V741.626C317.271 741.516 317.298 741.352 317.353 741.134C317.435 740.888 317.558 740.642 317.722 740.396L330.022 723.053C330.35 722.588 330.856 722.356 331.539 722.356H334.491C334.764 722.356 334.983 722.451 335.147 722.643C335.338 722.807 335.434 723.025 335.434 723.299V740.642H339.124C339.425 740.642 339.657 740.737 339.821 740.929C340.012 741.093 340.108 741.311 340.108 741.585V743.266C340.108 743.539 340.012 743.771 339.821 743.963C339.657 744.127 339.438 744.209 339.165 744.209H335.434V750.113C335.434 750.386 335.338 750.618 335.147 750.81C334.983 750.974 334.764 751.056 334.491 751.056H332.441ZM321.658 740.724H331.539V726.661L321.658 740.724Z" fill="white"/>
<rect x="530" y="692" width="312" height="91" rx="22" fill="#2E2F38"/>
<path d="M684.972 751.466C682.813 751.466 680.981 751.097 679.478 750.359C678.002 749.593 676.868 748.609 676.075 747.407C675.31 746.204 674.9 744.933 674.845 743.594C674.818 743.348 674.886 743.156 675.05 743.02C675.214 742.883 675.419 742.815 675.665 742.815H677.879C678.125 742.815 678.344 742.869 678.535 742.979C678.726 743.088 678.877 743.32 678.986 743.676C679.259 744.687 679.697 745.521 680.298 746.177C680.927 746.805 681.637 747.27 682.43 747.571C683.25 747.844 684.097 747.981 684.972 747.981C686.147 747.981 687.213 747.748 688.17 747.284C689.154 746.792 689.933 746.081 690.507 745.152C691.081 744.195 691.368 743.047 691.368 741.708C691.368 740.478 691.081 739.425 690.507 738.551C689.96 737.649 689.195 736.965 688.211 736.501C687.254 736.009 686.175 735.763 684.972 735.763C684.07 735.763 683.332 735.872 682.758 736.091C682.184 736.309 681.692 736.569 681.282 736.87C680.899 737.17 680.544 737.43 680.216 737.649C679.915 737.867 679.574 737.977 679.191 737.977H677.059C676.813 737.977 676.594 737.895 676.403 737.731C676.212 737.539 676.13 737.321 676.157 737.075L677.469 723.381C677.496 723.053 677.592 722.807 677.756 722.643C677.947 722.451 678.193 722.356 678.494 722.356H692.803C693.076 722.356 693.295 722.451 693.459 722.643C693.65 722.807 693.746 723.025 693.746 723.299V724.898C693.746 725.198 693.65 725.431 693.459 725.595C693.295 725.759 693.076 725.841 692.803 725.841H680.995L680.216 733.918C680.599 733.672 681.214 733.385 682.061 733.057C682.908 732.701 684.07 732.524 685.546 732.524C686.885 732.524 688.143 732.729 689.318 733.139C690.521 733.549 691.587 734.15 692.516 734.943C693.445 735.735 694.17 736.706 694.689 737.854C695.208 738.974 695.468 740.273 695.468 741.749C695.468 743.826 695.003 745.589 694.074 747.038C693.172 748.486 691.928 749.593 690.343 750.359C688.785 751.097 686.995 751.466 684.972 751.466Z" fill="white"/>
<rect x="887" y="692" width="312" height="91" rx="22" fill="#2E2F38"/>
<path d="M1042.63 751.466C1040.36 751.466 1038.43 751.015 1036.85 750.113C1035.26 749.183 1034.05 747.981 1033.2 746.505C1032.38 745.001 1031.97 743.375 1031.97 741.626C1031.97 740.806 1032.06 740.027 1032.26 739.289C1032.47 738.523 1032.73 737.813 1033.03 737.157C1033.36 736.473 1033.68 735.872 1033.98 735.353C1034.31 734.806 1034.59 734.369 1034.84 734.041L1042.63 723.176C1042.76 723.039 1042.93 722.875 1043.12 722.684C1043.31 722.465 1043.6 722.356 1043.98 722.356H1046.15C1046.4 722.356 1046.59 722.451 1046.73 722.643C1046.89 722.807 1046.97 723.012 1046.97 723.258C1046.97 723.367 1046.96 723.476 1046.93 723.586C1046.91 723.668 1046.86 723.736 1046.81 723.791L1040.82 732.155C1041.15 732.045 1041.52 731.977 1041.93 731.95C1042.37 731.895 1042.78 731.868 1043.16 731.868C1044.66 731.895 1046.03 732.168 1047.26 732.688C1048.49 733.207 1049.54 733.918 1050.42 734.82C1051.32 735.694 1052 736.719 1052.47 737.895C1052.93 739.043 1053.16 740.273 1053.16 741.585C1053.16 743.307 1052.76 744.919 1051.94 746.423C1051.12 747.926 1049.91 749.142 1048.33 750.072C1046.77 751.001 1044.87 751.466 1042.63 751.466ZM1042.59 747.981C1043.74 747.981 1044.8 747.735 1045.79 747.243C1046.77 746.751 1047.56 746.04 1048.16 745.111C1048.79 744.154 1049.11 742.992 1049.11 741.626C1049.11 740.232 1048.81 739.07 1048.2 738.141C1047.6 737.184 1046.8 736.473 1045.79 736.009C1044.8 735.517 1043.74 735.271 1042.59 735.271C1041.44 735.271 1040.37 735.517 1039.39 736.009C1038.41 736.473 1037.6 737.184 1036.97 738.141C1036.37 739.07 1036.07 740.232 1036.07 741.626C1036.07 742.992 1036.37 744.154 1036.97 745.111C1037.6 746.04 1038.41 746.751 1039.39 747.243C1040.37 747.735 1041.44 747.981 1042.59 747.981Z" fill="white"/>
<rect x="1244" y="692" width="312" height="91" rx="22" fill="#4B5EFC"/>
<path d="M1393.77 740.478C1393.5 740.478 1393.27 740.396 1393.08 740.232C1392.91 740.04 1392.83 739.808 1392.83 739.535V737.977C1392.83 737.703 1392.91 737.485 1393.08 737.321C1393.27 737.129 1393.5 737.034 1393.77 737.034H1406.07C1406.35 737.034 1406.56 737.129 1406.73 737.321C1406.92 737.485 1407.02 737.703 1407.02 737.977V739.535C1407.02 739.808 1406.92 740.04 1406.73 740.232C1406.56 740.396 1406.35 740.478 1406.07 740.478H1393.77Z" fill="white"/>
<rect x="173" y="575" width="312" height="90" rx="22" fill="#2E2F38"/>
<path d="M324.109 634C323.863 634 323.658 633.918 323.494 633.754C323.357 633.563 323.289 633.344 323.289 633.098C323.289 633.016 323.316 632.893 323.371 632.729L333.58 608.867H320.132C319.859 608.867 319.626 608.785 319.435 608.621C319.271 608.43 319.189 608.197 319.189 607.924V606.284C319.189 605.983 319.271 605.751 319.435 605.587C319.626 605.396 319.859 605.3 320.132 605.3H336.942C337.243 605.3 337.475 605.396 337.639 605.587C337.83 605.751 337.926 605.983 337.926 606.284V607.801C337.926 608.156 337.899 608.443 337.844 608.662C337.789 608.881 337.707 609.127 337.598 609.4L327.471 632.975C327.389 633.194 327.252 633.426 327.061 633.672C326.897 633.891 326.651 634 326.323 634H324.109Z" fill="white"/>
<rect x="530" y="575" width="312" height="90" rx="22" fill="#2E2F38"/>
<path d="M685.038 634.41C683.453 634.41 681.99 634.219 680.651 633.836C679.339 633.426 678.205 632.852 677.248 632.114C676.319 631.349 675.594 630.433 675.075 629.367C674.556 628.301 674.296 627.098 674.296 625.759C674.296 624.092 674.692 622.657 675.485 621.454C676.305 620.251 677.385 619.336 678.724 618.707C677.658 618.078 676.824 617.258 676.223 616.247C675.622 615.236 675.321 614.033 675.321 612.639C675.321 610.999 675.717 609.619 676.51 608.498C677.33 607.35 678.464 606.462 679.913 605.833C681.389 605.204 683.097 604.89 685.038 604.89C686.951 604.89 688.632 605.204 690.081 605.833C691.557 606.434 692.691 607.309 693.484 608.457C694.304 609.605 694.714 610.985 694.714 612.598C694.714 613.992 694.413 615.208 693.812 616.247C693.211 617.258 692.391 618.078 691.352 618.707C692.691 619.336 693.757 620.251 694.55 621.454C695.37 622.657 695.78 624.092 695.78 625.759C695.78 627.536 695.329 629.08 694.427 630.392C693.525 631.677 692.268 632.674 690.655 633.385C689.042 634.068 687.17 634.41 685.038 634.41ZM685.038 631.13C686.295 631.13 687.43 630.911 688.441 630.474C689.452 630.037 690.259 629.422 690.86 628.629C691.461 627.809 691.762 626.852 691.762 625.759C691.762 624.638 691.461 623.695 690.86 622.93C690.259 622.137 689.452 621.536 688.441 621.126C687.43 620.689 686.295 620.47 685.038 620.47C683.781 620.47 682.633 620.689 681.594 621.126C680.583 621.536 679.776 622.137 679.175 622.93C678.574 623.695 678.273 624.638 678.273 625.759C678.273 626.852 678.574 627.809 679.175 628.629C679.776 629.422 680.583 630.037 681.594 630.474C682.633 630.911 683.781 631.13 685.038 631.13ZM685.038 617.231C686.077 617.231 687.033 617.04 687.908 616.657C688.81 616.274 689.521 615.755 690.04 615.099C690.587 614.443 690.86 613.65 690.86 612.721C690.86 611.792 690.6 610.985 690.081 610.302C689.589 609.619 688.892 609.099 687.99 608.744C687.115 608.361 686.131 608.17 685.038 608.17C683.945 608.17 682.947 608.361 682.045 608.744C681.17 609.099 680.473 609.619 679.954 610.302C679.435 610.985 679.175 611.792 679.175 612.721C679.175 613.678 679.435 614.498 679.954 615.181C680.473 615.837 681.17 616.343 682.045 616.698C682.947 617.053 683.945 617.231 685.038 617.231Z" fill="white"/>
<rect x="887" y="575" width="312" height="90" rx="22" fill="#2E2F38"/>
<path d="M1037.91 634C1037.67 634 1037.46 633.918 1037.3 633.754C1037.16 633.563 1037.09 633.344 1037.09 633.098C1037.09 632.961 1037.11 632.852 1037.13 632.77C1037.19 632.688 1037.23 632.62 1037.26 632.565L1043.53 623.832C1042.85 623.996 1042.11 624.078 1041.32 624.078C1039.79 624.051 1038.42 623.777 1037.22 623.258C1036.01 622.739 1034.99 622.042 1034.14 621.167C1033.29 620.265 1032.65 619.254 1032.21 618.133C1031.78 617.012 1031.56 615.837 1031.56 614.607C1031.56 613.404 1031.76 612.229 1032.17 611.081C1032.61 609.933 1033.25 608.894 1034.1 607.965C1034.97 607.036 1036.05 606.298 1037.34 605.751C1038.62 605.177 1040.14 604.89 1041.89 604.89C1043.61 604.89 1045.12 605.163 1046.4 605.71C1047.71 606.229 1048.81 606.954 1049.68 607.883C1050.58 608.785 1051.24 609.81 1051.65 610.958C1052.09 612.106 1052.3 613.295 1052.3 614.525C1052.3 615.646 1052.14 616.671 1051.81 617.6C1051.48 618.529 1051.09 619.363 1050.62 620.101C1050.19 620.839 1049.75 621.522 1049.31 622.151L1041.44 633.18C1041.33 633.317 1041.18 633.494 1040.99 633.713C1040.8 633.904 1040.51 634 1040.13 634H1037.91ZM1041.89 620.757C1043.04 620.757 1044.09 620.511 1045.05 620.019C1046.03 619.5 1046.81 618.789 1047.38 617.887C1047.96 616.958 1048.25 615.851 1048.25 614.566C1048.25 613.281 1047.96 612.188 1047.38 611.286C1046.81 610.357 1046.03 609.646 1045.05 609.154C1044.09 608.635 1043.04 608.375 1041.89 608.375C1040.77 608.375 1039.73 608.635 1038.77 609.154C1037.82 609.646 1037.05 610.357 1036.48 611.286C1035.9 612.188 1035.62 613.281 1035.62 614.566C1035.62 615.851 1035.9 616.958 1036.48 617.887C1037.05 618.789 1037.82 619.5 1038.77 620.019C1039.73 620.511 1040.77 620.757 1041.89 620.757Z" fill="white"/>
<rect x="1244" y="575" width="312" height="90" rx="22" fill="#4B5EFC"/>
<path d="M1390.05 634C1389.83 634 1389.63 633.918 1389.44 633.754C1389.27 633.59 1389.19 633.385 1389.19 633.139C1389.19 633.057 1389.2 632.961 1389.23 632.852C1389.28 632.715 1389.37 632.565 1389.48 632.401L1396.61 623.094L1389.93 614.279C1389.82 614.115 1389.74 613.978 1389.68 613.869C1389.65 613.76 1389.64 613.65 1389.64 613.541C1389.64 613.295 1389.72 613.09 1389.89 612.926C1390.05 612.762 1390.26 612.68 1390.5 612.68H1392.59C1392.89 612.68 1393.11 612.762 1393.25 612.926C1393.41 613.063 1393.55 613.199 1393.66 613.336L1399.11 620.429L1404.56 613.377C1404.67 613.24 1404.8 613.09 1404.93 612.926C1405.1 612.762 1405.33 612.68 1405.63 612.68H1407.64C1407.89 612.68 1408.09 612.762 1408.25 612.926C1408.42 613.09 1408.5 613.295 1408.5 613.541C1408.5 613.65 1408.47 613.76 1408.42 613.869C1408.39 613.978 1408.32 614.115 1408.21 614.279L1401.45 623.176L1408.58 632.401C1408.69 632.565 1408.76 632.702 1408.79 632.811C1408.84 632.92 1408.87 633.03 1408.87 633.139C1408.87 633.385 1408.79 633.59 1408.62 633.754C1408.46 633.918 1408.25 634 1408.01 634H1405.84C1405.56 634 1405.34 633.932 1405.18 633.795C1405.02 633.658 1404.88 633.522 1404.77 633.385L1398.99 625.882L1393.21 633.385C1393.1 633.494 1392.96 633.631 1392.8 633.795C1392.66 633.932 1392.44 634 1392.14 634H1390.05Z" fill="white"/>
<rect x="173" y="457" width="312" height="90" rx="22" fill="#4E505F"/>
<path d="M328.521 516.41C325.706 516.41 323.464 515.549 321.797 513.827C320.13 512.078 319.214 509.7 319.05 506.693C319.023 506.338 319.009 505.887 319.009 505.34C319.009 504.766 319.023 504.301 319.05 503.946C319.159 502.005 319.61 500.311 320.403 498.862C321.196 497.386 322.275 496.252 323.642 495.459C325.036 494.666 326.662 494.27 328.521 494.27C330.598 494.27 332.334 494.707 333.728 495.582C335.149 496.457 336.229 497.7 336.967 499.313C337.705 500.926 338.074 502.812 338.074 504.971V505.668C338.074 505.969 337.978 506.201 337.787 506.365C337.623 506.529 337.404 506.611 337.131 506.611H322.945C322.945 506.638 322.945 506.693 322.945 506.775C322.945 506.857 322.945 506.925 322.945 506.98C323 508.101 323.246 509.153 323.683 510.137C324.12 511.094 324.749 511.873 325.569 512.474C326.389 513.075 327.373 513.376 328.521 513.376C329.505 513.376 330.325 513.226 330.981 512.925C331.637 512.624 332.17 512.296 332.58 511.941C332.99 511.558 333.263 511.271 333.4 511.08C333.646 510.725 333.837 510.52 333.974 510.465C334.111 510.383 334.329 510.342 334.63 510.342H336.598C336.871 510.342 337.09 510.424 337.254 510.588C337.445 510.725 337.527 510.93 337.5 511.203C337.473 511.613 337.254 512.119 336.844 512.72C336.434 513.294 335.846 513.868 335.081 514.442C334.316 515.016 333.386 515.494 332.293 515.877C331.2 516.232 329.942 516.41 328.521 516.41ZM322.945 503.782H334.179V503.659C334.179 502.429 333.947 501.336 333.482 500.379C333.045 499.422 332.402 498.671 331.555 498.124C330.708 497.55 329.696 497.263 328.521 497.263C327.346 497.263 326.334 497.55 325.487 498.124C324.667 498.671 324.038 499.422 323.601 500.379C323.164 501.336 322.945 502.429 322.945 503.659V503.782Z" fill="white"/>
<rect x="530" y="457" width="312" height="90" rx="22" fill="#4E505F"/>
<path d="M668.05 516C667.831 516 667.626 515.918 667.435 515.754C667.271 515.59 667.189 515.385 667.189 515.139C667.189 515.057 667.203 514.961 667.23 514.852C667.285 514.715 667.367 514.565 667.476 514.401L674.61 505.094L667.927 496.279C667.818 496.115 667.736 495.978 667.681 495.869C667.654 495.76 667.64 495.65 667.64 495.541C667.64 495.295 667.722 495.09 667.886 494.926C668.05 494.762 668.255 494.68 668.501 494.68H670.592C670.893 494.68 671.111 494.762 671.248 494.926C671.412 495.063 671.549 495.199 671.658 495.336L677.111 502.429L682.564 495.377C682.673 495.24 682.796 495.09 682.933 494.926C683.097 494.762 683.329 494.68 683.63 494.68H685.639C685.885 494.68 686.09 494.762 686.254 494.926C686.418 495.09 686.5 495.295 686.5 495.541C686.5 495.65 686.473 495.76 686.418 495.869C686.391 495.978 686.322 496.115 686.213 496.279L679.448 505.176L686.582 514.401C686.691 514.565 686.76 514.702 686.787 514.811C686.842 514.92 686.869 515.03 686.869 515.139C686.869 515.385 686.787 515.59 686.623 515.754C686.459 515.918 686.254 516 686.008 516H683.835C683.562 516 683.343 515.932 683.179 515.795C683.015 515.658 682.878 515.522 682.769 515.385L676.988 507.882L671.207 515.385C671.098 515.494 670.961 515.631 670.797 515.795C670.66 515.932 670.442 516 670.141 516H668.05ZM690.234 501.65C689.632 501.65 689.332 501.349 689.332 500.748V499.846C689.332 499.627 689.4 499.422 689.537 499.231C689.673 499.012 689.933 498.766 690.316 498.493C691.983 497.263 693.336 496.279 694.375 495.541C695.413 494.803 696.165 494.147 696.63 493.573C697.094 492.999 697.327 492.37 697.327 491.687C697.327 491.086 697.108 490.607 696.671 490.252C696.233 489.869 695.687 489.678 695.031 489.678C694.375 489.678 693.883 489.787 693.555 490.006C693.254 490.197 693.035 490.416 692.899 490.662C692.762 490.908 692.653 491.113 692.571 491.277C692.407 491.578 692.256 491.783 692.12 491.892C691.983 491.974 691.805 492.015 691.587 492.015H690.439C689.892 492.015 689.646 491.755 689.701 491.236C689.755 490.498 690.015 489.828 690.48 489.227C690.972 488.598 691.614 488.093 692.407 487.71C693.199 487.3 694.074 487.095 695.031 487.095C696.643 487.095 697.914 487.546 698.844 488.448C699.8 489.35 700.279 490.416 700.279 491.646C700.279 492.63 700.06 493.491 699.623 494.229C699.185 494.94 698.516 495.664 697.614 496.402C696.712 497.14 695.55 498.001 694.129 498.985H699.951C700.552 498.985 700.853 499.286 700.853 499.887V500.748C700.853 501.349 700.552 501.65 699.951 501.65H690.234Z" fill="white"/>
<rect x="887" y="457" width="312" height="90" rx="22" fill="#4E505F"/>
<path d="M1036.35 515C1036.09 515 1035.91 514.942 1035.79 514.825C1035.67 514.685 1035.58 514.545 1035.51 514.405L1029.95 497.885C1029.9 497.768 1029.88 497.652 1029.88 497.535C1029.88 497.325 1029.95 497.15 1030.09 497.01C1030.23 496.87 1030.4 496.8 1030.61 496.8H1032.01C1032.27 496.8 1032.47 496.87 1032.61 497.01C1032.75 497.15 1032.83 497.278 1032.85 497.395L1037.47 511.185L1044.61 485.74C1044.66 485.553 1044.76 485.367 1044.93 485.18C1045.09 484.993 1045.29 484.9 1045.52 484.9H1051.72C1051.95 484.9 1052.14 484.982 1052.28 485.145C1052.42 485.285 1052.49 485.472 1052.49 485.705V486.79C1052.49 487.023 1052.42 487.222 1052.28 487.385C1052.14 487.525 1051.95 487.595 1051.72 487.595H1047.17L1039.61 514.125C1039.51 514.405 1039.4 514.627 1039.26 514.79C1039.12 514.93 1038.92 515 1038.66 515H1036.35Z" fill="white"/>
<rect x="1244" y="457" width="312" height="90" rx="22" fill="#4B5EFC"/>
<path d="M1391.61 505.299C1391.33 505.299 1391.1 505.217 1390.91 505.053C1390.75 504.889 1390.67 504.67 1390.67 504.397V503.003C1390.67 502.73 1390.75 502.511 1390.91 502.347C1391.1 502.183 1391.33 502.101 1391.61 502.101H1407.19C1407.49 502.101 1407.72 502.183 1407.89 502.347C1408.05 502.511 1408.13 502.73 1408.13 503.003V504.397C1408.13 504.67 1408.05 504.889 1407.89 505.053C1407.72 505.217 1407.49 505.299 1407.19 505.299H1391.61ZM1398.09 513.171C1397.81 513.171 1397.58 513.089 1397.39 512.925C1397.23 512.761 1397.14 512.529 1397.14 512.228V509.768C1397.14 509.495 1397.23 509.262 1397.39 509.071C1397.58 508.88 1397.81 508.784 1398.09 508.784H1400.67C1400.94 508.784 1401.16 508.88 1401.33 509.071C1401.52 509.262 1401.61 509.495 1401.61 509.768V512.228C1401.61 512.529 1401.52 512.761 1401.33 512.925C1401.16 513.089 1400.94 513.171 1400.67 513.171H1398.09ZM1398.09 498.575C1397.81 498.575 1397.58 498.493 1397.39 498.329C1397.23 498.138 1397.14 497.905 1397.14 497.632V495.172C1397.14 494.871 1397.23 494.639 1397.39 494.475C1397.58 494.284 1397.81 494.188 1398.09 494.188H1400.67C1400.94 494.188 1401.16 494.284 1401.33 494.475C1401.52 494.639 1401.61 494.871 1401.61 495.172V497.632C1401.61 497.905 1401.52 498.138 1401.33 498.329C1401.16 498.493 1400.94 498.575 1400.67 498.575H1398.09Z" fill="white"/>
<path d="M1179.22 402.632C1178.32 402.632 1177.6 402.362 1177.06 401.822C1176.52 401.283 1176.25 400.564 1176.25 399.665V319.295L1152.11 337.904C1151.39 338.443 1150.63 338.668 1149.82 338.578C1149.1 338.488 1148.47 338.084 1147.93 337.364L1146.45 335.476C1145.91 334.757 1145.69 334.038 1145.78 333.319C1145.87 332.51 1146.27 331.836 1146.99 331.296L1175.71 309.181C1176.34 308.731 1176.93 308.462 1177.47 308.372C1178 308.282 1178.59 308.237 1179.22 308.237H1181.78C1182.68 308.237 1183.4 308.507 1183.94 309.046C1184.48 309.585 1184.75 310.305 1184.75 311.204V399.665C1184.75 400.564 1184.48 401.283 1183.94 401.822C1183.4 402.362 1182.68 402.632 1181.78 402.632H1179.22ZM1205.57 412.745C1204.85 412.745 1204.31 412.476 1203.95 411.936C1203.69 411.397 1203.6 410.723 1203.69 409.913L1206.25 393.732C1206.43 392.653 1206.74 391.799 1207.19 391.169C1207.73 390.45 1208.54 390.091 1209.62 390.091H1215.69C1216.32 390.091 1216.81 390.315 1217.17 390.765C1217.53 391.214 1217.71 391.709 1217.71 392.248C1217.71 393.057 1217.53 393.866 1217.17 394.675L1211.37 409.913C1211.01 410.812 1210.56 411.487 1210.02 411.936C1209.57 412.476 1208.85 412.745 1207.87 412.745H1205.57ZM1237.71 402.632C1236.81 402.632 1236.09 402.362 1235.55 401.822C1235.01 401.283 1234.74 400.564 1234.74 399.665V397.642C1234.74 396.743 1234.97 395.889 1235.42 395.08C1235.96 394.181 1236.85 393.147 1238.11 391.978L1273.04 357.052C1276.46 353.906 1279.06 351.164 1280.86 348.827C1282.66 346.489 1283.87 344.197 1284.5 341.949C1285.22 339.612 1285.58 337.05 1285.58 334.263C1285.58 328.24 1283.83 323.52 1280.32 320.104C1276.9 316.687 1272.01 314.979 1265.62 314.979C1261.58 314.979 1258.07 315.788 1255.1 317.407C1252.14 319.025 1249.8 321.317 1248.09 324.284C1246.38 327.161 1245.26 330.532 1244.72 334.398C1244.63 335.476 1244.23 336.286 1243.51 336.825C1242.79 337.274 1242.16 337.499 1241.62 337.499H1238.92C1238.02 337.499 1237.3 337.274 1236.76 336.825C1236.32 336.286 1236.09 335.656 1236.09 334.937C1236.18 331.88 1236.81 328.734 1237.98 325.498C1239.15 322.171 1240.9 319.115 1243.24 316.328C1245.66 313.541 1248.72 311.293 1252.41 309.585C1256.09 307.787 1260.5 306.888 1265.62 306.888C1272.45 306.888 1277.94 308.192 1282.07 310.799C1286.3 313.406 1289.36 316.777 1291.24 320.913C1293.13 325.048 1294.08 329.498 1294.08 334.263C1294.08 337.949 1293.54 341.365 1292.46 344.511C1291.38 347.568 1289.76 350.58 1287.6 353.546C1285.45 356.423 1282.7 359.39 1279.38 362.446L1247.82 394.541H1293C1293.99 394.541 1294.75 394.81 1295.29 395.35C1295.83 395.889 1296.1 396.653 1296.1 397.642V399.665C1296.1 400.564 1295.83 401.283 1295.29 401.822C1294.75 402.362 1293.99 402.632 1293 402.632H1237.71ZM1330.29 402.632C1329.48 402.632 1328.81 402.362 1328.27 401.822C1327.82 401.193 1327.6 400.474 1327.6 399.665C1327.6 399.215 1327.69 398.856 1327.86 398.586C1328.04 398.316 1328.18 398.092 1328.27 397.912L1349.58 367.975C1346.88 368.694 1343.96 369.054 1340.81 369.054C1335.42 369.054 1330.7 368.155 1326.65 366.357C1322.7 364.559 1319.37 362.177 1316.67 359.21C1314.07 356.153 1312.09 352.827 1310.74 349.231C1309.48 345.545 1308.85 341.814 1308.85 338.039C1308.85 334.263 1309.48 330.532 1310.74 326.846C1312.09 323.16 1314.07 319.834 1316.67 316.867C1319.37 313.811 1322.7 311.383 1326.65 309.585C1330.7 307.787 1335.42 306.888 1340.81 306.888C1346.2 306.888 1350.88 307.787 1354.83 309.585C1358.88 311.383 1362.25 313.811 1364.95 316.867C1367.65 319.834 1369.62 323.16 1370.88 326.846C1372.23 330.532 1372.9 334.263 1372.9 338.039C1372.9 341.545 1372.46 344.736 1371.56 347.613C1370.66 350.49 1369.58 353.007 1368.32 355.165C1367.15 357.322 1366.03 359.165 1364.95 360.693L1337.17 399.935C1336.81 400.384 1336.32 400.968 1335.69 401.688C1335.15 402.317 1334.25 402.632 1332.99 402.632H1330.29ZM1340.81 360.963C1345.04 360.963 1348.95 360.019 1352.54 358.131C1356.14 356.243 1359.02 353.591 1361.17 350.175C1363.33 346.759 1364.41 342.713 1364.41 338.039C1364.41 333.274 1363.33 329.184 1361.17 325.767C1359.02 322.351 1356.14 319.699 1352.54 317.811C1348.95 315.923 1345.04 314.979 1340.81 314.979C1336.59 314.979 1332.67 315.923 1329.08 317.811C1325.57 319.699 1322.74 322.351 1320.58 325.767C1318.43 329.184 1317.35 333.274 1317.35 338.039C1317.35 342.713 1318.43 346.759 1320.58 350.175C1322.74 353.591 1325.57 356.243 1329.08 358.131C1332.67 360.019 1336.59 360.963 1340.81 360.963ZM1418.12 403.98C1411.55 403.98 1405.98 402.766 1401.39 400.339C1396.9 397.912 1393.44 394.81 1391.01 391.035C1388.58 387.169 1387.28 383.168 1387.1 379.033C1387.01 378.224 1387.23 377.595 1387.77 377.145C1388.31 376.696 1388.99 376.471 1389.8 376.471H1392.36C1393.08 376.471 1393.71 376.651 1394.25 377.01C1394.88 377.37 1395.37 378.224 1395.73 379.572C1396.72 383.438 1398.34 386.584 1400.58 389.012C1402.92 391.439 1405.62 393.192 1408.68 394.271C1411.73 395.35 1414.88 395.889 1418.12 395.889C1422.52 395.889 1426.52 394.99 1430.12 393.192C1433.8 391.394 1436.72 388.742 1438.88 385.236C1441.04 381.73 1442.12 377.46 1442.12 372.425C1442.12 367.75 1441.04 363.795 1438.88 360.559C1436.72 357.232 1433.8 354.715 1430.12 353.007C1426.52 351.209 1422.52 350.31 1418.12 350.31C1414.79 350.31 1412.05 350.714 1409.89 351.524C1407.73 352.333 1405.93 353.277 1404.5 354.355C1403.06 355.434 1401.75 356.378 1400.58 357.187C1399.42 357.996 1398.11 358.401 1396.67 358.401H1394.25C1393.44 358.401 1392.72 358.131 1392.09 357.592C1391.46 356.963 1391.19 356.243 1391.28 355.434L1395.33 311.338C1395.42 310.35 1395.69 309.585 1396.13 309.046C1396.67 308.507 1397.39 308.237 1398.29 308.237H1442.25C1443.15 308.237 1443.87 308.507 1444.41 309.046C1444.95 309.585 1445.22 310.305 1445.22 311.204V313.361C1445.22 314.26 1444.95 314.979 1444.41 315.519C1443.87 316.058 1443.15 316.328 1442.25 316.328H1403.55L1400.72 346.804C1401.71 346.175 1403.6 345.276 1406.38 344.107C1409.17 342.848 1413.08 342.219 1418.12 342.219C1422.61 342.219 1426.79 342.893 1430.66 344.242C1434.61 345.5 1438.07 347.433 1441.04 350.04C1444.1 352.557 1446.43 355.704 1448.05 359.48C1449.76 363.166 1450.61 367.481 1450.61 372.425C1450.61 379.437 1449.13 385.281 1446.16 389.956C1443.29 394.631 1439.38 398.137 1434.43 400.474C1429.58 402.811 1424.14 403.98 1418.12 403.98ZM1468.89 402.632C1467.99 402.632 1467.27 402.362 1466.73 401.822C1466.19 401.283 1465.92 400.564 1465.92 399.665V393.192C1465.92 392.293 1466.19 391.574 1466.73 391.035C1467.27 390.405 1467.99 390.091 1468.89 390.091H1475.36C1476.26 390.091 1476.98 390.405 1477.52 391.035C1478.15 391.574 1478.46 392.293 1478.46 393.192V399.665C1478.46 400.564 1478.15 401.283 1477.52 401.822C1476.98 402.362 1476.26 402.632 1475.36 402.632H1468.89ZM1525.97 403.98C1519.41 403.98 1513.83 402.766 1509.25 400.339C1504.75 397.912 1501.29 394.81 1498.86 391.035C1496.44 387.169 1495.13 383.168 1494.95 379.033C1494.86 378.224 1495.09 377.595 1495.63 377.145C1496.17 376.696 1496.84 376.471 1497.65 376.471H1500.21C1500.93 376.471 1501.56 376.651 1502.1 377.01C1502.73 377.37 1503.22 378.224 1503.58 379.572C1504.57 383.438 1506.19 386.584 1508.44 389.012C1510.78 391.439 1513.47 393.192 1516.53 394.271C1519.59 395.35 1522.73 395.889 1525.97 395.889C1530.37 395.889 1534.37 394.99 1537.97 393.192C1541.66 391.394 1544.58 388.742 1546.74 385.236C1548.89 381.73 1549.97 377.46 1549.97 372.425C1549.97 367.75 1548.89 363.795 1546.74 360.559C1544.58 357.232 1541.66 354.715 1537.97 353.007C1534.37 351.209 1530.37 350.31 1525.97 350.31C1522.64 350.31 1519.9 350.714 1517.74 351.524C1515.59 352.333 1513.79 353.277 1512.35 354.355C1510.91 355.434 1509.61 356.378 1508.44 357.187C1507.27 357.996 1505.97 358.401 1504.53 358.401H1502.1C1501.29 358.401 1500.57 358.131 1499.94 357.592C1499.31 356.963 1499.04 356.243 1499.13 355.434L1503.18 311.338C1503.27 310.35 1503.54 309.585 1503.99 309.046C1504.53 308.507 1505.25 308.237 1506.15 308.237H1550.11C1551.01 308.237 1551.72 308.507 1552.26 309.046C1552.8 309.585 1553.07 310.305 1553.07 311.204V313.361C1553.07 314.26 1552.8 314.979 1552.26 315.519C1551.72 316.058 1551.01 316.328 1550.11 316.328H1511.4L1508.57 346.804C1509.56 346.175 1511.45 345.276 1514.24 344.107C1517.02 342.848 1520.93 342.219 1525.97 342.219C1530.46 342.219 1534.64 342.893 1538.51 344.242C1542.47 345.5 1545.93 347.433 1548.89 350.04C1551.95 352.557 1554.29 355.704 1555.91 359.48C1557.61 363.166 1558.47 367.481 1558.47 372.425C1558.47 379.437 1556.98 385.281 1554.02 389.956C1551.14 394.631 1547.23 398.137 1542.29 400.474C1537.43 402.811 1531.99 403.98 1525.97 403.98Z" fill="white"/>
<path d="M1368.1 288C1367.73 288 1367.42 287.889 1367.16 287.667C1366.94 287.408 1366.83 287.093 1366.83 286.723V284.946C1366.83 284.613 1366.92 284.243 1367.1 283.836C1367.29 283.428 1367.66 282.984 1368.21 282.503L1379.99 270.731C1381.87 269.14 1383.35 267.788 1384.43 266.678C1385.54 265.53 1386.32 264.438 1386.76 263.402C1387.24 262.365 1387.48 261.292 1387.48 260.181C1387.48 258.071 1386.89 256.406 1385.7 255.184C1384.52 253.925 1382.76 253.296 1380.43 253.296C1378.95 253.296 1377.67 253.611 1376.6 254.24C1375.53 254.832 1374.67 255.665 1374.04 256.739C1373.45 257.775 1373.06 258.96 1372.88 260.292C1372.8 260.774 1372.6 261.107 1372.27 261.292C1371.97 261.477 1371.69 261.569 1371.43 261.569H1368.55C1368.21 261.569 1367.94 261.477 1367.71 261.292C1367.49 261.07 1367.38 260.811 1367.38 260.514C1367.42 259.108 1367.71 257.701 1368.27 256.294C1368.82 254.851 1369.64 253.555 1370.71 252.408C1371.82 251.26 1373.17 250.335 1374.77 249.631C1376.4 248.891 1378.28 248.521 1380.43 248.521C1383.35 248.521 1385.74 249.058 1387.59 250.131C1389.48 251.168 1390.87 252.556 1391.76 254.296C1392.65 256.035 1393.09 257.942 1393.09 260.015C1393.09 261.644 1392.81 263.143 1392.26 264.512C1391.7 265.845 1390.89 267.159 1389.81 268.455C1388.78 269.713 1387.48 271.009 1385.93 272.342L1375.27 283.169H1392.59C1393 283.169 1393.31 283.28 1393.53 283.502C1393.79 283.724 1393.92 284.039 1393.92 284.446V286.723C1393.92 287.093 1393.79 287.408 1393.53 287.667C1393.31 287.889 1393 288 1392.59 288H1368.1ZM1412.02 288C1411.65 288 1411.33 287.889 1411.08 287.667C1410.85 287.408 1410.74 287.093 1410.74 286.723V255.628L1401.53 262.736C1401.23 262.958 1400.91 263.05 1400.58 263.013C1400.25 262.976 1399.97 262.81 1399.75 262.513L1398.3 260.681C1398.08 260.348 1397.99 260.015 1398.03 259.682C1398.1 259.348 1398.29 259.071 1398.58 258.849L1410.69 249.52C1410.95 249.335 1411.19 249.224 1411.41 249.187C1411.63 249.15 1411.87 249.132 1412.13 249.132H1414.96C1415.33 249.132 1415.63 249.261 1415.85 249.52C1416.07 249.742 1416.18 250.039 1416.18 250.409V286.723C1416.18 287.093 1416.07 287.408 1415.85 287.667C1415.63 287.889 1415.33 288 1414.96 288H1412.02ZM1436.66 288.555C1433.73 288.555 1431.25 288.056 1429.22 287.056C1427.22 286.02 1425.68 284.687 1424.61 283.058C1423.57 281.429 1423.02 279.708 1422.94 277.894C1422.91 277.561 1423 277.302 1423.22 277.117C1423.44 276.932 1423.72 276.839 1424.05 276.839H1427.05C1427.39 276.839 1427.68 276.913 1427.94 277.061C1428.2 277.209 1428.4 277.524 1428.55 278.005C1428.92 279.375 1429.51 280.504 1430.33 281.392C1431.18 282.244 1432.14 282.873 1433.22 283.28C1434.33 283.65 1435.47 283.836 1436.66 283.836C1438.25 283.836 1439.69 283.521 1440.99 282.892C1442.32 282.225 1443.38 281.263 1444.15 280.004C1444.93 278.709 1445.32 277.154 1445.32 275.34C1445.32 273.674 1444.93 272.249 1444.15 271.064C1443.41 269.843 1442.38 268.917 1441.05 268.288C1439.75 267.622 1438.29 267.289 1436.66 267.289C1435.44 267.289 1434.44 267.437 1433.66 267.733C1432.88 268.029 1432.22 268.381 1431.66 268.788C1431.14 269.195 1430.66 269.547 1430.22 269.843C1429.81 270.139 1429.35 270.287 1428.83 270.287H1425.94C1425.61 270.287 1425.31 270.176 1425.05 269.954C1424.79 269.695 1424.68 269.399 1424.72 269.066L1426.5 250.52C1426.53 250.076 1426.66 249.742 1426.89 249.52C1427.15 249.261 1427.48 249.132 1427.89 249.132H1447.26C1447.63 249.132 1447.93 249.261 1448.15 249.52C1448.41 249.742 1448.54 250.039 1448.54 250.409V252.574C1448.54 252.981 1448.41 253.296 1448.15 253.518C1447.93 253.74 1447.63 253.851 1447.26 253.851H1431.27L1430.22 264.79C1430.74 264.457 1431.57 264.068 1432.72 263.624C1433.86 263.143 1435.44 262.902 1437.44 262.902C1439.25 262.902 1440.95 263.18 1442.54 263.735C1444.17 264.29 1445.62 265.105 1446.88 266.178C1448.13 267.252 1449.12 268.566 1449.82 270.121C1450.52 271.638 1450.87 273.397 1450.87 275.396C1450.87 278.209 1450.24 280.596 1448.99 282.558C1447.76 284.52 1446.08 286.02 1443.93 287.056C1441.82 288.056 1439.4 288.555 1436.66 288.555ZM1457.92 288C1457.55 288 1457.24 287.889 1456.98 287.667C1456.76 287.408 1456.65 287.093 1456.65 286.723V282.725C1456.65 282.355 1456.76 282.059 1456.98 281.837C1457.24 281.577 1457.55 281.448 1457.92 281.448H1461.92C1462.29 281.448 1462.59 281.577 1462.81 281.837C1463.07 282.059 1463.2 282.355 1463.2 282.725V286.723C1463.2 287.093 1463.07 287.408 1462.81 287.667C1462.59 287.889 1462.29 288 1461.92 288H1457.92ZM1475.14 288C1474.8 288 1474.53 287.889 1474.31 287.667C1474.12 287.408 1474.03 287.112 1474.03 286.778C1474.03 286.593 1474.05 286.445 1474.08 286.334C1474.16 286.223 1474.21 286.131 1474.25 286.057L1482.75 274.229C1481.82 274.452 1480.82 274.563 1479.75 274.563C1477.67 274.526 1475.82 274.155 1474.19 273.452C1472.57 272.749 1471.18 271.805 1470.03 270.62C1468.88 269.399 1468.01 268.029 1467.42 266.511C1466.83 264.994 1466.53 263.402 1466.53 261.736C1466.53 260.107 1466.81 258.516 1467.36 256.961C1467.96 255.406 1468.83 253.999 1469.97 252.741C1471.16 251.482 1472.62 250.483 1474.36 249.742C1476.1 248.965 1478.15 248.576 1480.52 248.576C1482.86 248.576 1484.89 248.946 1486.63 249.687C1488.41 250.39 1489.89 251.371 1491.07 252.63C1492.3 253.851 1493.18 255.239 1493.74 256.794C1494.33 258.349 1494.63 259.959 1494.63 261.625C1494.63 263.143 1494.41 264.531 1493.96 265.789C1493.52 267.048 1492.98 268.177 1492.35 269.177C1491.76 270.176 1491.17 271.101 1490.57 271.953L1479.91 286.889C1479.77 287.075 1479.56 287.315 1479.3 287.611C1479.04 287.87 1478.65 288 1478.14 288H1475.14ZM1480.52 270.065C1482.08 270.065 1483.5 269.732 1484.8 269.066C1486.13 268.362 1487.19 267.4 1487.96 266.178C1488.74 264.92 1489.13 263.42 1489.13 261.681C1489.13 259.941 1488.74 258.46 1487.96 257.238C1487.19 255.98 1486.13 255.017 1484.8 254.351C1483.5 253.648 1482.08 253.296 1480.52 253.296C1479.01 253.296 1477.6 253.648 1476.3 254.351C1475.01 255.017 1473.97 255.98 1473.19 257.238C1472.42 258.46 1472.03 259.941 1472.03 261.681C1472.03 263.42 1472.42 264.92 1473.19 266.178C1473.97 267.4 1475.01 268.362 1476.3 269.066C1477.6 269.732 1479.01 270.065 1480.52 270.065ZM1500.11 288C1499.82 288 1499.54 287.889 1499.28 287.667C1499.06 287.445 1498.95 287.167 1498.95 286.834C1498.95 286.723 1498.96 286.593 1499 286.445C1499.08 286.26 1499.19 286.057 1499.33 285.834L1509 273.23L1499.95 261.292C1499.8 261.07 1499.69 260.885 1499.61 260.737C1499.58 260.589 1499.56 260.44 1499.56 260.292C1499.56 259.959 1499.67 259.682 1499.89 259.459C1500.11 259.237 1500.39 259.126 1500.72 259.126H1503.55C1503.96 259.126 1504.26 259.237 1504.44 259.459C1504.67 259.645 1504.85 259.83 1505 260.015L1512.38 269.621L1519.77 260.07C1519.92 259.885 1520.08 259.682 1520.27 259.459C1520.49 259.237 1520.8 259.126 1521.21 259.126H1523.93C1524.27 259.126 1524.54 259.237 1524.77 259.459C1524.99 259.682 1525.1 259.959 1525.1 260.292C1525.1 260.44 1525.06 260.589 1524.99 260.737C1524.95 260.885 1524.86 261.07 1524.71 261.292L1515.55 273.341L1525.21 285.834C1525.36 286.057 1525.45 286.242 1525.49 286.39C1525.56 286.538 1525.6 286.686 1525.6 286.834C1525.6 287.167 1525.49 287.445 1525.27 287.667C1525.04 287.889 1524.77 288 1524.43 288H1521.49C1521.12 288 1520.82 287.907 1520.6 287.722C1520.38 287.537 1520.19 287.352 1520.05 287.167L1512.22 277.006L1504.39 287.167C1504.24 287.315 1504.05 287.5 1503.83 287.722C1503.65 287.907 1503.35 288 1502.94 288H1500.11ZM1544.37 288.555C1541.3 288.555 1538.69 287.944 1536.54 286.723C1534.39 285.464 1532.75 283.836 1531.6 281.837C1530.49 279.801 1529.93 277.598 1529.93 275.229C1529.93 274.118 1530.06 273.063 1530.32 272.064C1530.62 271.027 1530.97 270.065 1531.38 269.177C1531.82 268.251 1532.25 267.437 1532.65 266.733C1533.1 265.993 1533.49 265.401 1533.82 264.957L1544.37 250.242C1544.56 250.057 1544.78 249.835 1545.04 249.576C1545.3 249.28 1545.68 249.132 1546.2 249.132H1549.15C1549.48 249.132 1549.74 249.261 1549.92 249.52C1550.14 249.742 1550.26 250.02 1550.26 250.353C1550.26 250.501 1550.24 250.649 1550.2 250.797C1550.16 250.908 1550.11 251.001 1550.03 251.075L1541.93 262.402C1542.37 262.254 1542.87 262.162 1543.43 262.125C1544.02 262.051 1544.57 262.014 1545.09 262.014C1547.13 262.051 1548.98 262.421 1550.64 263.124C1552.31 263.828 1553.74 264.79 1554.92 266.012C1556.14 267.196 1557.07 268.584 1557.7 270.176C1558.33 271.731 1558.64 273.397 1558.64 275.173C1558.64 277.506 1558.09 279.69 1556.97 281.726C1555.86 283.761 1554.24 285.409 1552.09 286.667C1549.98 287.926 1547.41 288.555 1544.37 288.555ZM1544.31 283.836C1545.87 283.836 1547.31 283.502 1548.65 282.836C1549.98 282.17 1551.05 281.207 1551.87 279.949C1552.72 278.653 1553.14 277.08 1553.14 275.229C1553.14 273.341 1552.74 271.768 1551.92 270.509C1551.11 269.214 1550.02 268.251 1548.65 267.622C1547.31 266.956 1545.87 266.622 1544.31 266.622C1542.76 266.622 1541.32 266.956 1539.98 267.622C1538.65 268.251 1537.56 269.214 1536.71 270.509C1535.89 271.768 1535.49 273.341 1535.49 275.229C1535.49 277.08 1535.89 278.653 1536.71 279.949C1537.56 281.207 1538.65 282.17 1539.98 282.836C1541.32 283.502 1542.76 283.836 1544.31 283.836Z" fill="#4E505F"/>
<rect x="807" y="64" width="114" height="52.25" rx="26.125" fill="#2E2F38"/>
<circle cx="835.5" cy="89.3333" r="15.8333" fill="#4E505F"/>
<path d="M887.843 73.5C881.679 75.977 876.667 81.3516 876.667 88.4009C876.667 92.8475 878.433 97.1119 881.577 100.256C884.722 103.4 888.986 105.167 893.432 105.167C900.482 105.167 905.856 100.155 908.333 93.9901C885.762 98.244 885.709 82.5426 887.843 73.5Z" stroke="#4B5EFC" stroke-width="2.63889" stroke-linecap="round" stroke-linejoin="round"/>
</svg>
